/* XPM */
static char *ccb5d3d6902b4313bc48188f72f48616mQ9xmWr2J5XhwoeQ[] = {
/* columns rows colors chars-per-pixel */
"224 64 5 1 ",
"  c None",
". c #202028",
"X c #41415B",
"o c #8FA3DD",
"O c #D9E7FF",
/* pixels */
"                                                                                                                                                                                                                                ",
"                                                                                                                                                                                                                                ",
"                                                                                                                                                                                                                                ",
"                                                                                                                                                                                                                                ",
"                                                                                                                                                                                                                                ",
"                                                                                                                                                                                                                                ",
"    ooOOOOO                                                                                                                                                                                                                     ",
"   ooO.....O        ooOOOOO                         ooOOOOO                                                                                                                                                                     ",
"   ooOXXXXXO       ooO.....O                       ooO.....O                                                                                                                                                                    ",
"   ooOXXXXXO       ooOXXXXXO        ooOOOOO        ooOXXXXXO                                                                                                                                                                    ",
"   ooOXXXXXO       ooOXXXXXO       ooO.....O       ooOXXXXXO                                                                                                                                                                    ",
"    ooOOOOOO       ooOXXXXXO       ooOXXXXXO       ooOXXXXXO                                                                                                                                                                    ",
"   oooooooo         ooOOOOOO       ooOXXXXXO        ooOOOOOO                                                                                                                                                                    ",
"   ooOOOOOO        oooooooo        ooOXXXXXO       oooooooo                                                                                                                                                                     ",
"   .oooooooX       .oooooooX       oooOOOOOO       .oooooooX                                                                                                                                                                    ",
"     o   o           o   o         .oooooooX         o   o                                                                                                                                                                      ",
"                                                                                                                                                                                                                                ",
"                                                                                                                                                                                                                                ",
"                                                                                                                                                                                                                                ",
"                                                                                     ooOOOOO                                                                                                         OOOOOO                     ",
"                                                                     ooOOOOO        oooO....                                                                                         OOOOOO         oO.....O                    ",
"                                                    oooOOOOO        oooO....        oooOXXXX                                                                        oOOOOOO         oO.....O        oOXXXXXO        oOOOOOO     ",
"    ooOOOOO                         oooOOOOO       oooO.....        oooOXXXX        oooOXXXX        oooOOOOO        ooOOOOO                         oOOOOOO        ooO.....O        oOXXXXXO        oOXXXXXO       ooO.....O    ",
"   ooO.....O        ooOOOOO        oooO.....       oooOXXXXX        oooOXXXX       ooooOXXXX       oooO.....       ooO.....O        ooOOOOO        ooO.....O       ooOXXXXXO        oOXXXXXO       ooOXXXXXO       ooOXXXXXO    ",
"   ooOXXXXXO       ooO.....O       oooOXXXXX       oooOXXXXX       ooooOXXXX       oooooOOOO       oooOXXXXX       ooOXXXXXO       ooO.....O       ooOXXXXXO       ooOXXXXXO       ooOXXXXXO       oooOOOOO        ooOXXXXXO    ",
"   ooOXXXXXO       ooOXXXXXO       oooOXXXXX       oooOXXXXX       oooooOOOO       oooooooo        oooOXXXXX       ooOXXXXXO       ooOXXXXXO       ooOXXXXXO       ooOXXXXXO       oooOOOOO       ooooooooo        ooOXXXXXO    ",
"   ooOXXXXXO       ooOXXXXXO       oooOXXXXX        oooOOOOO       oooooooo        ooooOOOO        oooOXXXXX       ooOXXXXXO       ooOXXXXXO       ooOXXXXXO       oooOOOOO       ooooooooo       oooOOOOOO        oooOOOOO     ",
"    ooOOOOOO       ooOXXXXXO        oooOOOOO       oooooooo        ooooOOOO         ooXOOOO         oooOOOOO        ooOOOOOO       ooOXXXXXO       oooOOOOO       ooooooooo       oooOOOOOO       X oOOOOOOoX     ooooooooo     ",
"   oooooooo         ooOOOOOO       oooooooo        ooXOOOOO         ooXOOOO        ooooooooo       oooooooo        oooooooo         ooOOOOOO      ooooooooo      X ooOOOOOOX      X oOOOOOOoX       ooooooo      X ooOOOOOOX    ",
"   ooOOOOOO        oooooooo        ooOOOOOO        oooooooo        ooooooooo               o       ooOOOOOO        ooOOOOOO        oooooooo       XooOOOOOOX        ooooooo         ooooooo           oo            ooooooo     ",
"   .oooooooX       .oOOOOOOX       .oooooooX           o                   o                       .oooooooX       .oooooooX       .oOOOOOOX        ooooooo            o              oo                               o        ",
"     o   o           o   o            o o                                                             o o            o   o           o   o            o o                                                                       ",
"                                                                                                                                                                                                                                ",
"                                                                                                                                                                                                                                ",
"                                                                                                                                                                                                                                ",
"                                                                                    ooOOOOO         ooOOOOO                                                                                                                     ",
"                                                                    ooOOOOO        ooO.....O       ooO.....O                                                                                                                    ",
"                                                                   ooO.....O       ooOXXXXXO       ooOXXXXXO                                                                                                                    ",
"    ooOOOOO                                         ooOOOOO        ooOXXXXXO       ooOXXXXXO       ooOXXXXXO                        ooOOOOO                                                                                     ",
"   ooO.....O        ooOOOOO                        ooO.....O       ooOXXXXXO       ooOXXXXXO       ooOXXXXXO                       ooO.....O                                                                                    ",
"   ooOXXXXXO       ooO.....O        ooOOOOO        ooOXXXXXO       ooOXXXXXO       oooOOOOOO       oooOOOOOO        ooOOOOO        ooOXXXXXO                                                                                    ",
"   ooOXXXXXO       ooOXXXXXO       ooO.....O       ooOXXXXXO       oooOOOOOO        oooooooo        oooooooo       ooO.....O       ooOXXXXXO                                                                                    ",
"   ooOXXXXXO       ooOXXXXXO       ooOXXXXXO       ooOXXXXXO        oooooooo     .oooooooooo     .oooooooooo       ooOXXXXXO       ooOXXXXXO                                                                                    ",
"    ooOOOOOO       ooOXXXXXO       ooOXXXXXO        ooOOOOOO      ooooooooo        ooOOOOOOo       ooOOOOOOoX      ooOXXXXXO        ooOOOOOO                                                                                    ",
"   oooooooo         ooOOOOOO       ooOXXXXXO       oooooooo      . ooOOOOOO        ooOOOOOO X      ooOOOOOO        ooOXXXXXO       oooooooo                                                                                     ",
"   ooOOOOOO        oooooooo        oooOOOOOO       ooOOOOOO         oooooooX        ooooooo         ooooooo        oooOOOOOO       ooOOOOOO                                                                                     ",
"   .oooooooX       .oOOOOOOX       .oOOOOOOX       .oooooooX           o               o               o           .oOOOOOOX       .oooooooX                                                                                    ",
"     o   o           o   o            o o              o                                                              o o            o   o                                                                                      ",
"                                                                                                                                                                                                                                ",
"                                                                                                                                                                                                                                ",
"                                                                                                                                                                                                                                ",
"                                                                                                                                                                                                                                ",
"                                                                                                                                                                                                                                ",
"                                                                                                                                                                                                                                ",
"    ooOOOOO         ooOOOOO         ooOOOOO         ooOOOOO         ooOOOOO         ooOOOOO         ooOOOOO                                                                                                                     ",
"   ooO.....O       ooO.....O       ooO.....O       ooO.....O       ooO.....O       ooO.....O       ooO.....O                                                                                                                    ",
"   ooOXXXXXO       ooOXXXXXO       ooOXXXXXO       ooOXXXXXO       ooOXXXXXO       ooOXXXXXO       ooOXXXXXO                                                                                                                    ",
"   ooOXXXXXO       ooOXXXXXO       ooOXXXXXO       ooOXXXXXO       ooOXXXXXO       ooOXXXXXO       ooOXXXXXO                                                                                                                    ",
"   ooOXXXXXO       ooOXXXXXO       ooOXXXXXO       ooOXXXXXO       ooOXXXXXO       ooOXXXXXO       ooOXXXXXO                                                                                                                    ",
"    ooOOOOOO        ooOOOOOO        ooOOOOOO        ooOOOOOO        ooOOOOOOX       ooOOOOOO        ooOOOOOO                                                                                                                    ",
"   oooooooo        oo.ooooo        oooooooo        oooooooo X      ooooooooo       oooooooooX      oooooooo                                                                                                                     ",
"   o.OOOOOO        ooOOOOOOoX      oo.OOOOOo       ooOOOOOOo       ooOOOOOO        ooOOOOOO        ooOOOOOOoX                                                                                                                   ",
"    oooooooX        ooooooo         ooooooo X      .ooooooo        .ooooooo        .ooooooo        .ooooooo                                                                                                                     ",
"     o   o           o   o           o   o           o   o           o   o           o   o           o   o                                                                                                                      "
};
