/* XPM */
static char *Astronaut_back[] = {
/* columns rows colors chars-per-pixel */
"100 100 4 1 ",
"  c None",
". c black",
"X c #D5D5D5",
"o c white",
/* pixels */
"                              XXXXXXXXXXoooooooooooooooooooooooooooooo                              ",
"                              XXXXXXXXXXoooooooooooooooooooooooooooooo                              ",
"                              XXXXXXXXXXoooooooooooooooooooooooooooooo                              ",
"                              XXXXXXXXXXoooooooooooooooooooooooooooooo                              ",
"                              XXXXXXXXXXoooooooooooooooooooooooooooooo                              ",
"                         XXXXXXXXXXoooooooooooooooooooooooooooooooooooooooo                         ",
"                         XXXXXXXXXXoooooooooooooooooooooooooooooooooooooooo                         ",
"                         XXXXXXXXXXoooooooooooooooooooooooooooooooooooooooo                         ",
"                         XXXXXXXXXXoooooooooooooooooooooooooooooooooooooooo                         ",
"                         XXXXXXXXXXoooooooooooooooooooooooooooooooooooooooo                         ",
"                         XXXXXooooooooooooooooooooooooooooooooooooooooooooo                         ",
"                         XXXXXooooooooooooooooooooooooooooooooooooooooooooo                         ",
"                         XXXXXooooooooooooooooooooooooooooooooooooooooooooo                         ",
"                         XXXXXooooooooooooooooooooooooooooooooooooooooooooo                         ",
"                         XXXXXooooooooooooooooooooooooooooooooooooooooooooo                         ",
"                         oooooooooooooooooooooooooooooooooooooooooooooooooo                         ",
"                         oooooooooooooooooooooooooooooooooooooooooooooooooo                         ",
"                         oooooooooooooooooooooooooooooooooooooooooooooooooo                         ",
"                         oooooooooooooooooooooooooooooooooooooooooooooooooo                         ",
"                         oooooooooooooooooooooooooooooooooooooooooooooooooo                         ",
"                         XXXXXooooooooooooooooooooooooooooooooooooooooXXXXX                         ",
"                         XXXXXooooooooooooooooooooooooooooooooooooooooXXXXX                         ",
"                         XXXXXooooooooooooooooooooooooooooooooooooooooXXXXX                         ",
"                         XXXXXooooooooooooooooooooooooooooooooooooooooXXXXX                         ",
"                         XXXXXooooooooooooooooooooooooooooooooooooooooXXXXX                         ",
"                         XXXXXooooooooooooooooooooooooooooooooooooooooXXXXX                         ",
"                         XXXXXooooooooooooooooooooooooooooooooooooooooXXXXX                         ",
"                         XXXXXooooooooooooooooooooooooooooooooooooooooXXXXX                         ",
"                         XXXXXooooooooooooooooooooooooooooooooooooooooXXXXX                         ",
"                         XXXXXooooooooooooooooooooooooooooooooooooooooXXXXX                         ",
"                              XXXXXooooooooooooooooooooooooooooooXXXXX                              ",
"                              XXXXXooooooooooooooooooooooooooooooXXXXX                              ",
"                              XXXXXooooooooooooooooooooooooooooooXXXXX                              ",
"                              XXXXXooooooooooooooooooooooooooooooXXXXX                              ",
"                              XXXXXooooooooooooooooooooooooooooooXXXXX                              ",
"                                   ..............................                                   ",
"                                   ..............................                                   ",
"                                   ..............................                                   ",
"                                   ..............................                                   ",
"                                   ..............................                                   ",
"                         XXXXXooooooooooXXXXXXXXXXXXXXXXXXXXooooooooooXXXXX                         ",
"                         XXXXXooooooooooXXXXXXXXXXXXXXXXXXXXooooooooooXXXXX                         ",
"                         XXXXXooooooooooXXXXXXXXXXXXXXXXXXXXooooooooooXXXXX                         ",
"                         XXXXXooooooooooXXXXXXXXXXXXXXXXXXXXooooooooooXXXXX                         ",
"                         XXXXXooooooooooXXXXXXXXXXXXXXXXXXXXooooooooooXXXXX                         ",
"                    XXXXXooooooooooXXXXXXXXXXXXXXXXXXXXXXXXXXXXXXooooooooooXXXXX                    ",
"                    XXXXXooooooooooXXXXXXXXXXXXXXXXXXXXXXXXXXXXXXooooooooooXXXXX                    ",
"                    XXXXXooooooooooXXXXXXXXXXXXXXXXXXXXXXXXXXXXXXooooooooooXXXXX                    ",
"                    XXXXXooooooooooXXXXXXXXXXXXXXXXXXXXXXXXXXXXXXooooooooooXXXXX                    ",
"                    XXXXXooooooooooXXXXXXXXXXXXXXXXXXXXXXXXXXXXXXooooooooooXXXXX                    ",
"                    XXXXXooooooooooXXXXXXXXXXXXXXXXXXXXXXXXXXXXXXooooooooooXXXXX                    ",
"                    XXXXXooooooooooXXXXXXXXXXXXXXXXXXXXXXXXXXXXXXooooooooooXXXXX                    ",
"                    XXXXXooooooooooXXXXXXXXXXXXXXXXXXXXXXXXXXXXXXooooooooooXXXXX                    ",
"                    XXXXXooooooooooXXXXXXXXXXXXXXXXXXXXXXXXXXXXXXooooooooooXXXXX                    ",
"                    XXXXXooooooooooXXXXXXXXXXXXXXXXXXXXXXXXXXXXXXooooooooooXXXXX                    ",
"                    XXXXXooooooooooXXXXXXXXXXXXXXXXXXXXXXXXXXXXXXooooooooooXXXXX                    ",
"                    XXXXXooooooooooXXXXXXXXXXXXXXXXXXXXXXXXXXXXXXooooooooooXXXXX                    ",
"                    XXXXXooooooooooXXXXXXXXXXXXXXXXXXXXXXXXXXXXXXooooooooooXXXXX                    ",
"                    XXXXXooooooooooXXXXXXXXXXXXXXXXXXXXXXXXXXXXXXooooooooooXXXXX                    ",
"                    XXXXXooooooooooXXXXXXXXXXXXXXXXXXXXXXXXXXXXXXooooooooooXXXXX                    ",
"                    XXXXXooooooooooXXXXXXXXXXXXXXXXXXXXXXXXXXXXXXooooooooooXXXXX                    ",
"                    XXXXXooooooooooXXXXXXXXXXXXXXXXXXXXXXXXXXXXXXooooooooooXXXXX                    ",
"                    XXXXXooooooooooXXXXXXXXXXXXXXXXXXXXXXXXXXXXXXooooooooooXXXXX                    ",
"                    XXXXXooooooooooXXXXXXXXXXXXXXXXXXXXXXXXXXXXXXooooooooooXXXXX                    ",
"                    XXXXXooooooooooXXXXXXXXXXXXXXXXXXXXXXXXXXXXXXooooooooooXXXXX                    ",
"                    XXXXXoooooooooooooooXXXXXXXXXXXXXXXXXXXXoooooooooooooooXXXXX                    ",
"                    XXXXXoooooooooooooooXXXXXXXXXXXXXXXXXXXXoooooooooooooooXXXXX                    ",
"                    XXXXXoooooooooooooooXXXXXXXXXXXXXXXXXXXXoooooooooooooooXXXXX                    ",
"                    XXXXXoooooooooooooooXXXXXXXXXXXXXXXXXXXXoooooooooooooooXXXXX                    ",
"                    XXXXXoooooooooooooooXXXXXXXXXXXXXXXXXXXXoooooooooooooooXXXXX                    ",
"                         oooooooooooooooooooooooooooooooooooooooooooooooooo                         ",
"                         oooooooooooooooooooooooooooooooooooooooooooooooooo                         ",
"                         oooooooooooooooooooooooooooooooooooooooooooooooooo                         ",
"                         oooooooooooooooooooooooooooooooooooooooooooooooooo                         ",
"                         oooooooooooooooooooooooooooooooooooooooooooooooooo                         ",
"                              XXXXXoooooooooo..........XXXXXoooooooooo                              ",
"                              XXXXXoooooooooo..........XXXXXoooooooooo                              ",
"                              XXXXXoooooooooo..........XXXXXoooooooooo                              ",
"                              XXXXXoooooooooo..........XXXXXoooooooooo                              ",
"                              XXXXXoooooooooo..........XXXXXoooooooooo                              ",
"                              XXXXXoooooooooo          XXXXXoooooooooo                              ",
"                              XXXXXoooooooooo          XXXXXoooooooooo                              ",
"                              XXXXXoooooooooo          XXXXXoooooooooo                              ",
"                              XXXXXoooooooooo          XXXXXoooooooooo                              ",
"                              XXXXXoooooooooo          XXXXXoooooooooo                              ",
"                              XXXXXoooooooooo          XXXXXoooooooooo                              ",
"                              XXXXXoooooooooo          XXXXXoooooooooo                              ",
"                              XXXXXoooooooooo          XXXXXoooooooooo                              ",
"                              XXXXXoooooooooo          XXXXXoooooooooo                              ",
"                              XXXXXoooooooooo          XXXXXoooooooooo                              ",
"                              XXXXXoooooooooo          XXXXXoooooooooo                              ",
"                              XXXXXoooooooooo          XXXXXoooooooooo                              ",
"                              XXXXXoooooooooo          XXXXXoooooooooo                              ",
"                              XXXXXoooooooooo          XXXXXoooooooooo                              ",
"                              XXXXXoooooooooo          XXXXXoooooooooo                              ",
"                              ...............          ...............                              ",
"                              ...............          ...............                              ",
"                              ...............          ...............                              ",
"                              ...............          ...............                              ",
"                              ...............          ...............                              "
};
