/* XPM */
static char *Astronaut_right[] = {
/* columns rows colors chars-per-pixel */
"100 100 5 1 ",
"  c None",
". c black",
"X c #5A5B65",
"o c #D5D5D5",
"O c white",
/* pixels */
"                                   ooooooooooOOOOOOOOOOOOOOOOOOOO                                   ",
"                                   ooooooooooOOOOOOOOOOOOOOOOOOOO                                   ",
"                                   ooooooooooOOOOOOOOOOOOOOOOOOOO                                   ",
"                                   ooooooooooOOOOOOOOOOOOOOOOOOOO                                   ",
"                                   ooooooooooOOOOOOOOOOOOOOOOOOOO                                   ",
"                              oooooOOOOOOOOOOXXXXXXXXXXXXXXXXXXXXOOOOO                              ",
"                              oooooOOOOOOOOOOXXXXXXXXXXXXXXXXXXXXOOOOO                              ",
"                              oooooOOOOOOOOOOXXXXXXXXXXXXXXXXXXXXOOOOO                              ",
"                              oooooOOOOOOOOOOXXXXXXXXXXXXXXXXXXXXOOOOO                              ",
"                              oooooOOOOOOOOOOXXXXXXXXXXXXXXXXXXXXOOOOO                              ",
"                         OOOOOOOOOOOOOOOXXXXXXXXXXXXXXXXXXXXXXXXXXXXXX                              ",
"                         OOOOOOOOOOOOOOOXXXXXXXXXXXXXXXXXXXXXXXXXXXXXX                              ",
"                         OOOOOOOOOOOOOOOXXXXXXXXXXXXXXXXXXXXXXXXXXXXXX                              ",
"                         OOOOOOOOOOOOOOOXXXXXXXXXXXXXXXXXXXXXXXXXXXXXX                              ",
"                         OOOOOOOOOOOOOOOXXXXXXXXXXXXXXXXXXXXXXXXXXXXXX                              ",
"                         oooooOOOOOOOOOOXXXXXXXXXXXXXXXXXXXXXXXXXXXXXX                              ",
"                         oooooOOOOOOOOOOXXXXXXXXXXXXXXXXXXXXXXXXXXXXXX                              ",
"                         oooooOOOOOOOOOOXXXXXXXXXXXXXXXXXXXXXXXXXXXXXX                              ",
"                         oooooOOOOOOOOOOXXXXXXXXXXXXXXXXXXXXXXXXXXXXXX                              ",
"                         oooooOOOOOOOOOOXXXXXXXXXXXXXXXXXXXXXXXXXXXXXX                              ",
"                         oooooOOOOOOOOOOXXXXXXXXXXXXXXXXXXXXXXXXXXXXXX                              ",
"                         oooooOOOOOOOOOOXXXXXXXXXXXXXXXXXXXXXXXXXXXXXX                              ",
"                         oooooOOOOOOOOOOXXXXXXXXXXXXXXXXXXXXXXXXXXXXXX                              ",
"                         oooooOOOOOOOOOOXXXXXXXXXXXXXXXXXXXXXXXXXXXXXX                              ",
"                         oooooOOOOOOOOOOXXXXXXXXXXXXXXXXXXXXXXXXXXXXXX                              ",
"                              oooooOOOOOOOOOOXXXXXXXXXXXXXXXXXXXXOOOOO                              ",
"                              oooooOOOOOOOOOOXXXXXXXXXXXXXXXXXXXXOOOOO                              ",
"                              oooooOOOOOOOOOOXXXXXXXXXXXXXXXXXXXXOOOOO                              ",
"                              oooooOOOOOOOOOOXXXXXXXXXXXXXXXXXXXXOOOOO                              ",
"                              oooooOOOOOOOOOOXXXXXXXXXXXXXXXXXXXXOOOOO                              ",
"                                   ooooooooooOOOOOOOOOOOOOOOOOOOO                                   ",
"                                   ooooooooooOOOOOOOOOOOOOOOOOOOO                                   ",
"                                   ooooooooooOOOOOOOOOOOOOOOOOOOO                                   ",
"                                   ooooooooooOOOOOOOOOOOOOOOOOOOO                                   ",
"                                   ooooooooooOOOOOOOOOOOOOOOOOOOO                                   ",
"                                   .........................                                        ",
"                                   .........................                                        ",
"                                   .........................                                        ",
"                                   .........................                                        ",
"                                   .........................                                        ",
"                              oooooOOOOOOOOOOOOOOOOOOOOOOOOOOOOOO                                   ",
"                              oooooOOOOOOOOOOOOOOOOOOOOOOOOOOOOOO                                   ",
"                              oooooOOOOOOOOOOOOOOOOOOOOOOOOOOOOOO                                   ",
"                              oooooOOOOOOOOOOOOOOOOOOOOOOOOOOOOOO                                   ",
"                              oooooOOOOOOOOOOOOOOOOOOOOOOOOOOOOOO                                   ",
"                         oooooOOOOOOOOOOOOOOOOOOOOOOOOOoooooOOOOOOOOOO                              ",
"                         oooooOOOOOOOOOOOOOOOOOOOOOOOOOoooooOOOOOOOOOO                              ",
"                         oooooOOOOOOOOOOOOOOOOOOOOOOOOOoooooOOOOOOOOOO                              ",
"                         oooooOOOOOOOOOOOOOOOOOOOOOOOOOoooooOOOOOOOOOO                              ",
"                         oooooOOOOOOOOOOOOOOOOOOOOOOOOOoooooOOOOOOOOOO                              ",
"                         oooooOOOOO.....OOOOOOOOOOOOOOO.....oooooOOOOO                              ",
"                         oooooOOOOO.....OOOOOOOOOOOOOOO.....oooooOOOOO                              ",
"                         oooooOOOOO.....OOOOOOOOOOOOOOO.....oooooOOOOO                              ",
"                         oooooOOOOO.....OOOOOOOOOOOOOOO.....oooooOOOOO                              ",
"                         oooooOOOOO.....OOOOOOOOOOOOOOO.....oooooOOOOO                              ",
"                         oooooOOOOO.....OOOOOOOOOOOOOOO.....oooooOOOOO                              ",
"                         oooooOOOOO.....OOOOOOOOOOOOOOO.....oooooOOOOO                              ",
"                         oooooOOOOO.....OOOOOOOOOOOOOOO.....oooooOOOOO                              ",
"                         oooooOOOOO.....OOOOOOOOOOOOOOO.....oooooOOOOO                              ",
"                         oooooOOOOO.....OOOOOOOOOOOOOOO.....oooooOOOOO                              ",
"                         oooooOOOOO.....OOOOOOOOOOOOOOO.....oooooOOOOO                              ",
"                         oooooOOOOO.....OOOOOOOOOOOOOOO.....oooooOOOOO                              ",
"                         oooooOOOOO.....OOOOOOOOOOOOOOO.....oooooOOOOO                              ",
"                         oooooOOOOO.....OOOOOOOOOOOOOOO.....oooooOOOOO                              ",
"                         oooooOOOOO.....OOOOOOOOOOOOOOO.....oooooOOOOO                              ",
"                         oooooOOOOO.....OOOOOOOOOOOOOOO.....oooooOOOOO                              ",
"                         oooooOOOOO.....OOOOOOOOOOOOOOO.....oooooOOOOO                              ",
"                         oooooOOOOO.....OOOOOOOOOOOOOOO.....oooooOOOOO                              ",
"                         oooooOOOOO.....OOOOOOOOOOOOOOO.....oooooOOOOO                              ",
"                         oooooOOOOO.....OOOOOOOOOOOOOOO.....oooooOOOOO                              ",
"                         ..........OOOOOOOOOO..........OOOOO..........                              ",
"                         ..........OOOOOOOOOO..........OOOOO..........                              ",
"                         ..........OOOOOOOOOO..........OOOOO..........                              ",
"                         ..........OOOOOOOOOO..........OOOOO..........                              ",
"                         ..........OOOOOOOOOO..........OOOOO..........                              ",
"                                   OOOOOOOOOO.....OOOOOOOOOO                                        ",
"                                   OOOOOOOOOO.....OOOOOOOOOO                                        ",
"                                   OOOOOOOOOO.....OOOOOOOOOO                                        ",
"                                   OOOOOOOOOO.....OOOOOOOOOO                                        ",
"                                   OOOOOOOOOO.....OOOOOOOOOO                                        ",
"                                   OOOOOOOOOO.....OOOOOOOOOO                                        ",
"                                   OOOOOOOOOO.....OOOOOOOOOO                                        ",
"                                   OOOOOOOOOO.....OOOOOOOOOO                                        ",
"                                   OOOOOOOOOO.....OOOOOOOOOO                                        ",
"                                   OOOOOOOOOO.....OOOOOOOOOO                                        ",
"                                   OOOOOOOOOO.....OOOOOOOOOO                                        ",
"                                   OOOOOOOOOO.....OOOOOOOOOO                                        ",
"                                   OOOOOOOOOO.....OOOOOOOOOO                                        ",
"                                   OOOOOOOOOO.....OOOOOOOOOO                                        ",
"                                   OOOOOOOOOO.....OOOOOOOOOO                                        ",
"                                   OOOOOOOOOO.....OOOOOOOOOO                                        ",
"                                   OOOOOOOOOO.....OOOOOOOOOO                                        ",
"                                   OOOOOOOOOO.....OOOOOOOOOO                                        ",
"                                   OOOOOOOOOO.....OOOOOOOOOO                                        ",
"                                   OOOOOOOOOO.....OOOOOOOOOO                                        ",
"                                   .........................                                        ",
"                                   .........................                                        ",
"                                   .........................                                        ",
"                                   .........................                                        ",
"                                   .........................                                        "
};
