/* XPM */
static char *Collectible[] = {
/* columns rows colors chars-per-pixel */
"100 100 9 1 ",
"  c None",
". c #B28A10",
"X c #C0940E",
"o c #CC9D0F",
"O c #D8A60E",
"+ c #E5B010",
"@ c #F1B910",
"# c #F9C529",
"$ c #FAC936",
/* pixels */
"               oooooooooooooooXXXXXXXXXXXXXXXXXXXXXXXXX                                             ",
"               oooooooooooooooXXXXXXXXXXXXXXXXXXXXXXXXX                                             ",
"               oooooooooooooooXXXXXXXXXXXXXXXXXXXXXXXXX                                             ",
"               oooooooooooooooXXXXXXXXXXXXXXXXXXXXXXXXX                                             ",
"               oooooooooooooooXXXXXXXXXXXXXXXXXXXXXXXXX                                             ",
"                    OOOOOOOOOOOOOOOOOOOOooooooooooXXXXXXXXXXXXXXX                                   ",
"                    OOOOOOOOOOOOOOOOOOOOooooooooooXXXXXXXXXXXXXXX                                   ",
"                    OOOOOOOOOOOOOOOOOOOOooooooooooXXXXXXXXXXXXXXX                                   ",
"                    OOOOOOOOOOOOOOOOOOOOooooooooooXXXXXXXXXXXXXXX                                   ",
"                    OOOOOOOOOOOOOOOOOOOOooooooooooXXXXXXXXXXXXXXX                                   ",
"                         OOOOOOOOOOOOOOOOOOOOoooooooooooooooXXXXXXXXXX                              ",
"                         OOOOOOOOOOOOOOOOOOOOoooooooooooooooXXXXXXXXXX                              ",
"                         OOOOOOOOOOOOOOOOOOOOoooooooooooooooXXXXXXXXXX                              ",
"                         OOOOOOOOOOOOOOOOOOOOoooooooooooooooXXXXXXXXXX                              ",
"                         OOOOOOOOOOOOOOOOOOOOoooooooooooooooXXXXXXXXXX                              ",
"                                   OOOOOOOOOOOOOOOOOOOOOOOOOoooooXXXXXXXXXX                         ",
"                                   OOOOOOOOOOOOOOOOOOOOOOOOOoooooXXXXXXXXXX                         ",
"                                   OOOOOOOOOOOOOOOOOOOOOOOOOoooooXXXXXXXXXX                         ",
"                                   OOOOOOOOOOOOOOOOOOOOOOOOOoooooXXXXXXXXXX                         ",
"                                   OOOOOOOOOOOOOOOOOOOOOOOOOoooooXXXXXXXXXX                         ",
"                                        OOOOOOOOOOOOOOOOOOOOooooooooooXXXXXXXXXX                    ",
"                                        OOOOOOOOOOOOOOOOOOOOooooooooooXXXXXXXXXX                    ",
"                                        OOOOOOOOOOOOOOOOOOOOooooooooooXXXXXXXXXX                    ",
"                                        OOOOOOOOOOOOOOOOOOOOooooooooooXXXXXXXXXX                    ",
"                                        OOOOOOOOOOOOOOOOOOOOooooooooooXXXXXXXXXX                    ",
"                                             OOOOOOOOOOOOOOOOOOOOooooooooooXXXXX                    ",
"                                             OOOOOOOOOOOOOOOOOOOOooooooooooXXXXX                    ",
"                                             OOOOOOOOOOOOOOOOOOOOooooooooooXXXXX                    ",
"                                             OOOOOOOOOOOOOOOOOOOOooooooooooXXXXX                    ",
"                                             OOOOOOOOOOOOOOOOOOOOooooooooooXXXXX                    ",
"                                                  OOOOOOOOOOOOOOOOOOOOooooooooooXXXXX               ",
"                                                  OOOOOOOOOOOOOOOOOOOOooooooooooXXXXX               ",
"                                                  OOOOOOOOOOOOOOOOOOOOooooooooooXXXXX               ",
"                                                  OOOOOOOOOOOOOOOOOOOOooooooooooXXXXX               ",
"                                                  OOOOOOOOOOOOOOOOOOOOooooooooooXXXXX               ",
"                                                       OOOOOOOOOOOOOOOooooooooooooooo               ",
"                                                       OOOOOOOOOOOOOOOooooooooooooooo               ",
"                                                       OOOOOOOOOOOOOOOooooooooooooooo               ",
"                                                       OOOOOOOOOOOOOOOooooooooooooooo               ",
"                                                       OOOOOOOOOOOOOOOooooooooooooooo               ",
"                                                       OOOOOOOOOOOOOOOooooooooooXXXXX               ",
"                                                       OOOOOOOOOOOOOOOooooooooooXXXXX               ",
"                                                       OOOOOOOOOOOOOOOooooooooooXXXXX               ",
"                                                       OOOOOOOOOOOOOOOooooooooooXXXXX               ",
"                                                       OOOOOOOOOOOOOOOooooooooooXXXXX               ",
"                                                       #####OOOOOOOOOOooooooooooXXXXX               ",
"                                                       #####OOOOOOOOOOooooooooooXXXXX               ",
"                                                       #####OOOOOOOOOOooooooooooXXXXX               ",
"                                                       #####OOOOOOOOOOooooooooooXXXXX               ",
"                                                       #####OOOOOOOOOOooooooooooXXXXX               ",
"                                                       #####+++++OOOOOoooooXXXXXXXXXX               ",
"                                                       #####+++++OOOOOoooooXXXXXXXXXX               ",
"                                                       #####+++++OOOOOoooooXXXXXXXXXX               ",
"                                                       #####+++++OOOOOoooooXXXXXXXXXX               ",
"                                                       #####+++++OOOOOoooooXXXXXXXXXX               ",
"                                                       #####+++++OOOOOOOOOOXXXXXXXXXX               ",
"                                                       #####+++++OOOOOOOOOOXXXXXXXXXX               ",
"                                                       #####+++++OOOOOOOOOOXXXXXXXXXX               ",
"                                                       #####+++++OOOOOOOOOOXXXXXXXXXX               ",
"                                                       #####+++++OOOOOOOOOOXXXXXXXXXX               ",
"                                                       #####+++++OOOOOOOOOOXXXXX.....               ",
"                                                       #####+++++OOOOOOOOOOXXXXX.....               ",
"                                                       #####+++++OOOOOOOOOOXXXXX.....               ",
"                                                       #####+++++OOOOOOOOOOXXXXX.....               ",
"                                                       #####+++++OOOOOOOOOOXXXXX.....               ",
"                                                  $$$$$@@@@@OOOOOOOOOOXXXXX..........               ",
"                                                  $$$$$@@@@@OOOOOOOOOOXXXXX..........               ",
"                                                  $$$$$@@@@@OOOOOOOOOOXXXXX..........               ",
"                                                  $$$$$@@@@@OOOOOOOOOOXXXXX..........               ",
"                                                  $$$$$@@@@@OOOOOOOOOOXXXXX..........               ",
"                                             $$$$$$$$$$OOOOOOOOOOXXXXXXXXXX.....                    ",
"                                             $$$$$$$$$$OOOOOOOOOOXXXXXXXXXX.....                    ",
"                                             $$$$$$$$$$OOOOOOOOOOXXXXXXXXXX.....                    ",
"                                             $$$$$$$$$$OOOOOOOOOOXXXXXXXXXX.....                    ",
"                                             $$$$$$$$$$OOOOOOOOOOXXXXXXXXXX.....                    ",
"                                        $$$$$@@@@@OOOOOOOOOOXXXXXXXXXX..........                    ",
"                                        $$$$$@@@@@OOOOOOOOOOXXXXXXXXXX..........                    ",
"                                        $$$$$@@@@@OOOOOOOOOOXXXXXXXXXX..........                    ",
"                                        $$$$$@@@@@OOOOOOOOOOXXXXXXXXXX..........                    ",
"                                        $$$$$@@@@@OOOOOOOOOOXXXXXXXXXX..........                    ",
"                                   @@@@@@@@@@OOOOOOOOOOXXXXXXXXXX..........                         ",
"                                   @@@@@@@@@@OOOOOOOOOOXXXXXXXXXX..........                         ",
"                                   @@@@@@@@@@OOOOOOOOOOXXXXXXXXXX..........                         ",
"                                   @@@@@@@@@@OOOOOOOOOOXXXXXXXXXX..........                         ",
"                                   @@@@@@@@@@OOOOOOOOOOXXXXXXXXXX..........                         ",
"                         OOOOOOOOOOOOOOOOOOOOXXXXXXXXXXXXXXX..........                              ",
"                         OOOOOOOOOOOOOOOOOOOOXXXXXXXXXXXXXXX..........                              ",
"                         OOOOOOOOOOOOOOOOOOOOXXXXXXXXXXXXXXX..........                              ",
"                         OOOOOOOOOOOOOOOOOOOOXXXXXXXXXXXXXXX..........                              ",
"                         OOOOOOOOOOOOOOOOOOOOXXXXXXXXXXXXXXX..........                              ",
"                    OOOOOOOOOOOOOOOXXXXXXXXXXXXXXX...............                                   ",
"                    OOOOOOOOOOOOOOOXXXXXXXXXXXXXXX...............                                   ",
"                    OOOOOOOOOOOOOOOXXXXXXXXXXXXXXX...............                                   ",
"                    OOOOOOOOOOOOOOOXXXXXXXXXXXXXXX...............                                   ",
"                    OOOOOOOOOOOOOOOXXXXXXXXXXXXXXX...............                                   ",
"               XXXXXXXXXXXXXXXXXXXXXXXXX...............                                             ",
"               XXXXXXXXXXXXXXXXXXXXXXXXX...............                                             ",
"               XXXXXXXXXXXXXXXXXXXXXXXXX...............                                             ",
"               XXXXXXXXXXXXXXXXXXXXXXXXX...............                                             ",
"               XXXXXXXXXXXXXXXXXXXXXXXXX...............                                             "
};
