/* XPM */
static char *Exit[] = {
/* columns rows colors chars-per-pixel */
"100 100 13 1 ",
"  c None",
". c black",
"X c #8D0202",
"o c #910000",
"O c #960303",
"+ c #AE1D1D",
"@ c gray54",
"# c #BFBCBC",
"$ c #CBCBCB",
"% c #D1CECE",
"& c #E0DEDE",
"* c #E2E0E0",
"= c #F0EFEF",
/* pixels */
"                                             OOOOO+++++                                             ",
"                                             OOOOO+++++                                             ",
"                                             OOOOO+++++                                             ",
"                                             OOOOO+++++                                             ",
"                                             OOOOO+++++                                             ",
"                                        oooooOOOOO++++++++++                                        ",
"                                        oooooOOOOO++++++++++                                        ",
"                                        oooooOOOOO++++++++++                                        ",
"                                        oooooOOOOO++++++++++                                        ",
"                                        oooooOOOOO++++++++++                                        ",
"                                        XXXXXoooooOOOOO+++++                                        ",
"                                        XXXXXoooooOOOOO+++++                                        ",
"                                        XXXXXoooooOOOOO+++++                                        ",
"                                        XXXXXoooooOOOOO+++++                                        ",
"                                        XXXXXoooooOOOOO+++++                                        ",
"                                   ..............................                                   ",
"                                   ..............................                                   ",
"                                   ..............................                                   ",
"                                   ..............................                                   ",
"                                   ..............................                                   ",
"                                   #####%%%%%===============&&&&&                                   ",
"                                   #####%%%%%===============&&&&&                                   ",
"                                   #####%%%%%===============&&&&&                                   ",
"                                   #####%%%%%===============&&&&&                                   ",
"                                   #####%%%%%===============&&&&&                                   ",
"                              #####%%%%%====================&&&&&&&&&&                              ",
"                              #####%%%%%====================&&&&&&&&&&                              ",
"                              #####%%%%%====================&&&&&&&&&&                              ",
"                              #####%%%%%====================&&&&&&&&&&                              ",
"                              #####%%%%%====================&&&&&&&&&&                              ",
"                              #####%%%%%=====$$$$$$$$$$==========&&&&&                              ",
"                              #####%%%%%=====$$$$$$$$$$==========&&&&&                              ",
"                              #####%%%%%=====$$$$$$$$$$==========&&&&&                              ",
"                              #####%%%%%=====$$$$$$$$$$==========&&&&&                              ",
"                              #####%%%%%=====$$$$$$$$$$==========&&&&&                              ",
"                              #####=====$$$$$**********$$$$$=====&&&&&                              ",
"                              #####=====$$$$$**********$$$$$=====&&&&&                              ",
"                              #####=====$$$$$**********$$$$$=====&&&&&                              ",
"                              #####=====$$$$$**********$$$$$=====&&&&&                              ",
"                              #####=====$$$$$**********$$$$$=====&&&&&                              ",
"                         #####%%%%%=====$$$$$**********$$$$$=====&&&&&&&&&&                         ",
"                         #####%%%%%=====$$$$$**********$$$$$=====&&&&&&&&&&                         ",
"                         #####%%%%%=====$$$$$**********$$$$$=====&&&&&&&&&&                         ",
"                         #####%%%%%=====$$$$$**********$$$$$=====&&&&&&&&&&                         ",
"                         #####%%%%%=====$$$$$**********$$$$$=====&&&&&&&&&&                         ",
"                         #####%%%%%==========$$$$$$$$$$===============&&&&&                         ",
"                         #####%%%%%==========$$$$$$$$$$===============&&&&&                         ",
"                         #####%%%%%==========$$$$$$$$$$===============&&&&&                         ",
"                         #####%%%%%==========$$$$$$$$$$===============&&&&&                         ",
"                         #####%%%%%==========$$$$$$$$$$===============&&&&&                         ",
"                         #####========================================&&&&&                         ",
"                         #####========================================&&&&&                         ",
"                         #####========================================&&&&&                         ",
"                         #####========================================&&&&&                         ",
"                         #####========================================&&&&&                         ",
"                         .....========================================.....                         ",
"                         .....========================================.....                         ",
"                         .....========================================.....                         ",
"                         .....========================================.....                         ",
"                         .....========================================.....                         ",
"                    ..........===============@@@@@@@@@@===============..........                    ",
"                    ..........===============@@@@@@@@@@===============..........                    ",
"                    ..........===============@@@@@@@@@@===============..........                    ",
"                    ..........===============@@@@@@@@@@===============..........                    ",
"                    ..........===============@@@@@@@@@@===============..........                    ",
"               ...............==========@@@@@@@@@@@@@@@@@@@@==========...............               ",
"               ...............==========@@@@@@@@@@@@@@@@@@@@==========...............               ",
"               ...............==========@@@@@@@@@@@@@@@@@@@@==========...............               ",
"               ...............==========@@@@@@@@@@@@@@@@@@@@==========...............               ",
"               ...............==========@@@@@@@@@@@@@@@@@@@@==========...............               ",
"               ...............==========@@@@@@@@@@@@@@@.....==========...............               ",
"               ...............==========@@@@@@@@@@@@@@@.....==========...............               ",
"               ...............==========@@@@@@@@@@@@@@@.....==========...............               ",
"               ...............==========@@@@@@@@@@@@@@@.....==========...............               ",
"               ...............==========@@@@@@@@@@@@@@@.....==========...............               ",
"               ...............&&&&&=====@@@@@@@@@@@@@@@@@@@@=====&&&&&...............               ",
"               ...............&&&&&=====@@@@@@@@@@@@@@@@@@@@=====&&&&&...............               ",
"               ...............&&&&&=====@@@@@@@@@@@@@@@@@@@@=====&&&&&...............               ",
"               ...............&&&&&=====@@@@@@@@@@@@@@@@@@@@=====&&&&&...............               ",
"               ...............&&&&&=====@@@@@@@@@@@@@@@@@@@@=====&&&&&...............               ",
"               ...............&&&&&=====@@@@@@@@@@@@@@@@@@@@=====&&&&&...............               ",
"               ...............&&&&&=====@@@@@@@@@@@@@@@@@@@@=====&&&&&...............               ",
"               ...............&&&&&=====@@@@@@@@@@@@@@@@@@@@=====&&&&&...............               ",
"               ...............&&&&&=====@@@@@@@@@@@@@@@@@@@@=====&&&&&...............               ",
"               ...............&&&&&=====@@@@@@@@@@@@@@@@@@@@=====&&&&&...............               ",
"               ..........     &&&&&&&&&&====================&&&&&&&&&&     ..........               ",
"               ..........     &&&&&&&&&&====================&&&&&&&&&&     ..........               ",
"               ..........     &&&&&&&&&&====================&&&&&&&&&&     ..........               ",
"               ..........     &&&&&&&&&&====================&&&&&&&&&&     ..........               ",
"               ..........     &&&&&&&&&&====================&&&&&&&&&&     ..........               ",
"                              @@@@@@@@@@@@@@@          @@@@@@@@@@@@@@@                              ",
"                              @@@@@@@@@@@@@@@          @@@@@@@@@@@@@@@                              ",
"                              @@@@@@@@@@@@@@@          @@@@@@@@@@@@@@@                              ",
"                              @@@@@@@@@@@@@@@          @@@@@@@@@@@@@@@                              ",
"                              @@@@@@@@@@@@@@@          @@@@@@@@@@@@@@@                              ",
"                              ...............          ...............                              ",
"                              ...............          ...............                              ",
"                              ...............          ...............                              ",
"                              ...............          ...............                              ",
"                              ...............          ...............                              "
};
