/* XPM */
static char *Tile[] = {
/* columns rows colors chars-per-pixel */
"100 100 5 1 ",
"  c None",
". c #AEAEB0",
"X c #AFAFB1",
"o c gray77",
"O c #D5D5D5",
/* pixels */
"                                        ....................                                        ",
"                                        ....................                                        ",
"                                        ....................                                        ",
"                                        ....................                                        ",
"                                        ....................                                        ",
"                              OOOOO...............OOOOOOOOOOOOOOOOOOOO                              ",
"                              OOOOO...............OOOOOOOOOOOOOOOOOOOO                              ",
"                              OOOOO...............OOOOOOOOOOOOOOOOOOOO                              ",
"                              OOOOO...............OOOOOOOOOOOOOOOOOOOO                              ",
"                              OOOOO...............OOOOOOOOOOOOOOOOOOOO                              ",
"                    ..........oooooOOOOOOOOOOOOOOOOOOOOOOOOOOOOOOOOOOOoooooooooo                    ",
"                    ..........oooooOOOOOOOOOOOOOOOOOOOOOOOOOOOOOOOOOOOoooooooooo                    ",
"                    ..........oooooOOOOOOOOOOOOOOOOOOOOOOOOOOOOOOOOOOOoooooooooo                    ",
"                    ..........oooooOOOOOOOOOOOOOOOOOOOOOOOOOOOOOOOOOOOoooooooooo                    ",
"                    ..........oooooOOOOOOOOOOOOOOOOOOOOOOOOOOOOOOOOOOOoooooooooo                    ",
"               ..........ooooo.....OOOOOOOOOOOOOOOoooooOOOOOooooooooooooooo....X.....               ",
"               ..........ooooo.....OOOOOOOOOOOOOOOoooooOOOOOooooooooooooooo..........               ",
"               ..........ooooo.....OOOOOOOOOOOOOOOoooooOOOOOooooooooooooooo..........               ",
"               ..........ooooo.....OOOOOOOOOOOOOOOoooooOOOOOooooooooooooooo..........               ",
"               ..........ooooo.....OOOOOOOOOOOOOOOoooooOOOOOooooooooooooooo..........               ",
"          .....OOOOOooooo..........oooooOOOOOOOOOOooooo.....OOOOOoooooooooo..........ooooo          ",
"          .....OOOOOooooo..........oooooOOOOOOOOOOooooo.....OOOOOoooooooooo..........ooooo          ",
"          .....OOOOOooooo..........oooooOOOOOOOOOOooooo.....OOOOOoooooooooo..........ooooo          ",
"          .....OOOOOooooo..........oooooOOOOOOOOOOooooo.....OOOOOoooooooooo..........ooooo          ",
"          .....OOOOOooooo..........oooooOOOOOOOOOOooooo.....OOOOOoooooooooo.....X....ooooo          ",
"          .....ooooo...............oooooOOOOOoooooOOOOOOOOOOOOOOOooooo..........oooooooooo          ",
"          .....ooooo...............oooooOOOOOoooooOOOOOOOOOOOOOOOooooo..........oooooooooo          ",
"          .....ooooo...............oooooOOOOOoooooOOOOOOOOOOOOOOOooooo..........oooooooooo          ",
"          .....ooooo...............oooooOOOOOoooooOOOOOOOOOOOOOOOooooo..........oooooooooo          ",
"          .....ooooo...............oooooOOOOOoooooOOOOOOOOOOOOOOOooooo..........oooooooooo          ",
"     .....OOOOOooooooooooooooooooooOOOOOOOOOOOOOOOOOOOOOOOOOOOOOOoooooOOOOOOOOOOOOOOOOOOOOOOOOO     ",
"     .....OOOOOooooooooooooooooooooOOOOOOOOOOOOOOOOOOOOOOOOOOOOOOoooooOOOOOOOOOOOOOOOOOOOOOOOOO     ",
"     .....OOOOOooooooooooooooooooooOOOOOOOOOOOOOOOOOOOOOOOOOOOOOOoooooOOOOOOOOOOOOOOOOOOOOOOOOO     ",
"     .....OOOOOooooooooooooooooooooOOOOOOOOOOOOOOOOOOOOOOOOOOOOOOoooooOOOOOOOOOOOOOOOOOOOOOOOOO     ",
"     .....OOOOOooooooooooooooooooooOOOOOOOOOOOOOOOOOOOOOOOOOOOOOOoooooOOOOOOOOOOOOOOOOOOOOOOOOO     ",
"     .....OOOOOOOOOOOOOOOOOOOOOOOOOOOOOOOOOOOOOOOOOOOOOoooooOOOOOOOOOOOOOOOoooooOOOOOOOOOOOOOOO     ",
"     .....OOOOOOOOOOOOOOOOOOOOOOOOOOOOOOOOOOOOOOOOOOOOOoooooOOOOOOOOOOOOOOOoooooOOOOOOOOOOOOOOO     ",
"     .....OOOOOOOOOOOOOOOOOOOOOOOOOOOOOOOOOOOOOOOOOOOOOoooooOOOOOOOOOOOOOOOoooooOOOOOOOOOOOOOOO     ",
"     .....OOOOOOOOOOOOOOOOOOOOOOOOOOOOOOOOOOOOOOOOOOOOOoooooOOOOOOOOOOOOOOOoooooOOOOOOOOOOOOOOO     ",
"     .....OOOOOOOOOOOOOOOOOOOOOOOOOOOOOOOOOOOOOOOOOOOOOoooooOOOOOOOOOOOOOOOoooooOOOOOOOOOOOOOOO     ",
"..........OOOOOooooooooooOOOOOoooooOOOOO.....ooooooooooooooooooooOOOOOooooooooooOOOOOoooooOOOOOOOOOO",
"..........OOOOOooooooooooOOOOOoooooOOOOO.....ooooooooooooooooooooOOOOOooooooooooOOOOOoooooOOOOOOOOOO",
"..........OOOOOooooooooooOOOOOoooooOOOOO.....ooooooooooooooooooooOOOOOooooooooooOOOOOoooooOOOOOOOOOO",
"..........OOOOOooooooooooOOOOOoooooOOOOO.....ooooooooooooooooooooOOOOOooooooooooOOOOOoooooOOOOOOOOOO",
"..........OOOOOooooooooooOOOOOoooooOOOOO.....ooooooooooooooooooooOOOOOooooooooooOOOOOoooooOOOOOOOOOO",
".....ooooooooooOOOOOooooooooooOOOOOOOOOO.....ooooo..........oooooOOOOOooooooooooOOOOOOOOOOoooooooooo",
".....ooooooooooOOOOOooooooooooOOOOOOOOOO.....ooooo..........oooooOOOOOooooooooooOOOOOOOOOOoooooooooo",
".....ooooooooooOOOOOooooooooooOOOOOOOOOO.....ooooo..........oooooOOOOOooooooooooOOOOOOOOOOoooooooooo",
".....ooooooooooOOOOOooooooooooOOOOOOOOOO.....ooooo..........oooooOOOOOooooooooooOOOOOOOOOOoooooooooo",
".....ooooooooooOOOOOooooooooooOOOOOOOOOO.....ooooo..........oooooOOOOOooooooooooOOOOOOOOOOoooooooooo",
"OOOOOOOOOOOOOOO.....ooooooooooOOOOO.....OOOOOoooooooooo.....ooooooooooOOOOOoooooOOOOOOOOOOoooooooooo",
"OOOOOOOOOOOOOOO.....ooooooooooOOOOO.....OOOOOoooooooooo.....ooooooooooOOOOOoooooOOOOOOOOOOoooooooooo",
"OOOOOOOOOOOOOOO.....ooooooooooOOOOO.....OOOOOoooooooooo.....ooooooooooOOOOOoooooOOOOOOOOOOoooooooooo",
"OOOOOOOOOOOOOOO.....ooooooooooOOOOO.....OOOOOoooooooooo.....ooooooooooOOOOOoooooOOOOOOOOOOoooooooooo",
"OOOOOOOOOOOOOOO.....ooooooooooOOOOO.....OOOOOoooooooooo.....ooooooooooOOOOOoooooOOOOOOOOOOoooooooooo",
"OOOOOOOOOOOOOOOooooo.....oooooOOOOO.....OOOOOooooo.....ooooooooooOOOOOOOOOO.....oooooOOOOOOOOOOOOOOO",
"OOOOOOOOOOOOOOOooooo.....oooooOOOOO.....OOOOOooooo.....ooooooooooOOOOOOOOOO.....oooooOOOOOOOOOOOOOOO",
"OOOOOOOOOOOOOOOooooo.....oooooOOOOO.....OOOOOooooo.....ooooooooooOOOOOOOOOO.....oooooOOOOOOOOOOOOOOO",
"OOOOOOOOOOOOOOOooooo.....oooooOOOOO.....OOOOOooooo.....ooooooooooOOOOOOOOOO.....oooooOOOOOOOOOOOOOOO",
"OOOOOOOOOOOOOOOooooo.....oooooOOOOO.....OOOOOooooo.....ooooooooooOOOOOOOOOO.....oooooOOOOOOOOOOOOOOO",
"     .....OOOOOOOOOOOOOOOOOOOOOOOOO.....OOOOOOOOOOOOOOO.....ooooooooooooooo.....oooooOOOOOOOOOO     ",
"     .....OOOOOOOOOOOOOOOOOOOOOOOOO.....OOOOOOOOOOOOOOO.....ooooooooooooooo.....oooooOOOOOOOOOO     ",
"     .....OOOOOOOOOOOOOOOOOOOOOOOOO.....OOOOOOOOOOOOOOO.....ooooooooooooooo.....oooooOOOOOOOOOO     ",
"     .....OOOOOOOOOOOOOOOOOOOOOOOOOX....OOOOOOOOOOOOOOO.....ooooooooooooooo.....oooooOOOOOOOOOO     ",
"     .....OOOOOOOOOOOOOOOOOOOOOOOOO.....OOOOOOOOOOOOOOO.....ooooooooooooooo.....oooooOOOOOOOOOO     ",
"     .....OOOOOOOOOO.....oooooOOOOOOOOOOOOOOOOOOOOOOOOOOOOOOOOOOOoooooOOOOOooooo.....OOOOOOOOOO     ",
"     .....OOOOOOOOOO.....oooooOOOOOOOOOOOOOOOOOOOOOOOOOOOOOOOOOOOoooooOOOOOooooo.....OOOOOOOOOO     ",
"     .....OOOOOOOOOO.....oooooOOOOOOOOOOOOOOOOOOOOOOOOOOOOOOOOOOOoooooOOOOOooooo.....OOOOOOOOOO     ",
"     .....OOOOOOOOOO.....oooooOOOOOOOOOOOOOOOOOOOOOOOOOOOOOOOOOOOoooooOOOOOooooo.....OOOOOOOOOO     ",
"     .....OOOOOOOOOO.....oooooOOOOOOOOOOOOOOOOOOOOOOOOOOOOOOOOOOOoooooOOOOOooooo.....OOOOOOOOOO     ",
"          OOOOOOOOOOoooooOOOOOOOOOO.....oooooOOOOOOOOOOOOOOOoooooooooo........X......ooooo          ",
"          OOOOOOOOOOoooooOOOOOOOOOO.....oooooOOOOOOOOOOOOOOOoooooooooo.........X.....ooooo          ",
"          OOOOOOOOOOoooooOOOOOOOOOO.....oooooOOOOOOOOOOOOOOOoooooooooo...............ooooo          ",
"          OOOOOOOOOOoooooOOOOOOOOOO.....oooooOOOOOOOOOOOOOOOoooooooooo...............ooooo          ",
"          OOOOOOOOOOoooooOOOOOOOOOO.....oooooOOOOOOOOOOOOOOOoooooooooo...............ooooo          ",
"          .....OOOOOOOOOOOOOOOOOOOOOOOOOooooooooooOOOOOooooo.....OOOOOooooo..........ooooo          ",
"          .....OOOOOOOOOOOOOOOOOOOOOOOOOooooooooooOOOOOooooo.....OOOOOooooo..........ooooo          ",
"          .....OOOOOOOOOOOOOOOOOOOOOOOOOooooooooooOOOOOooooo.....OOOOOooooo..........ooooo          ",
"          .....OOOOOOOOOOOOOOOOOOOOOOOOOooooooooooOOOOOooooo.....OOOOOooooo..........ooooo          ",
"          .....OOOOOOOOOOOOOOOOOOOOOOOOOooooooooooOOOOOooooo.....OOOOOooooo..........ooooo          ",
"               ..........OOOOOOOOOOOOOOOooooo.....oooooOOOOOOOOOOOOOOOOOOOO.....ooooo               ",
"               ..........OOOOOOOOOOOOOOOooooo.....oooooOOOOOOOOOOOOOOOOOOOO.X...ooooo               ",
"               ..........OOOOOOOOOOOOOOOooooo.....oooooOOOOOOOOOOOOOOOOOOOO.X...ooooo               ",
"               ..........OOOOOOOOOOOOOOOooooo.....oooooOOOOOOOOOOOOOOOOOOOO.....ooooo               ",
"               ..........OOOOOOOOOOOOOOOooooo.....oooooOOOOOOOOOOOOOOOOOOOO.....ooooo               ",
"                    ..........OOOOOOOOOOOOOOO.....ooooooooooOOOOO...............                    ",
"                    ..........OOOOOOOOOOOOOOO.....ooooooooooOOOOO...............                    ",
"                    ..........OOOOOOOOOOOOOOO.....ooooooooooOOOOO...............                    ",
"                    ..........OOOOOOOOOOOOOOO.....ooooooooooOOOOO...............                    ",
"                    ..........OOOOOOOOOOOOOOO.....ooooooooooOOOOO...............                    ",
"                              ..........OOOOOOOOOOOOOOOooooo..........                              ",
"                              ..........OOOOOOOOOOOOOOOooooo..........                              ",
"                              ..........OOOOOOOOOOOOOOOooooo..........                              ",
"                              ..........OOOOOOOOOOOOOOOooooo..........                              ",
"                              ..........OOOOOOOOOOOOOOOooooo..........                              ",
"                                        OOOOOOOOOOOOOOO.....                                        ",
"                                        OOOOOOOOOOOOOOO.....                                        ",
"                                        OOOOOOOOOOOOOOO.....                                        ",
"                                        OOOOOOOOOOOOOOO.....                                        ",
"                                        OOOOOOOOOOOOOOO.....                                        "
};
