/* XPM */
static char *pl_0[] = {
/* columns rows colors chars-per-pixel */
"32 32 14 1 ",
"  c #190F58",
". c #1C1257",
"X c #1F1457",
"o c #1A1058",
"O c #1B1158",
"+ c #1C1158",
"@ c #211657",
"# c #221756",
"$ c #251A56",
"% c #261B56",
"& c #281C55",
"* c #2B1F55",
"= c #2E2254",
"- c #312454",
/* pixels */
"                                ",
"                                ",
"     -       #                  ",
"             &        -         ",
"                 &              ",
"                 #              ",
"          @%                -   ",
"          oO       $$           ",
"      -                         ",
"                X               ",
"  -             *       -       ",
"                              $ ",
"                              $ ",
"          -                     ",
"                                ",
"                  #&            ",
"    &#                   +      ",
"                        +*      ",
"                                ",
"                               -",
"        -      -         -      ",
"                     -          ",
"   $$                           ",
"                                ",
"            &#            #&    ",
"                 X  -           ",
"                 *              ",
" -                             -",
"      =.    &#                  ",
"                       -     -  ",
"                                ",
"                -               "
};
