/* XPM */
static char *pl_2[] = {
/* columns rows colors chars-per-pixel */
"32 32 31 1 ",
"  c #293F2A",
". c #2A3C2C",
"X c #2A3E2C",
"o c #323234",
"O c #165817",
"+ c #165E17",
"@ c #036D03",
"# c #036E03",
"$ c #036F03",
"% c #076D07",
"& c #0C650D",
"* c #0B6E0B",
"= c #0C6D0D",
"- c #037003",
"; c #037103",
": c #037203",
"> c #037303",
", c #037403",
"< c #037603",
"1 c #077607",
"2 c #037803",
"3 c #037903",
"4 c #037A03",
"5 c #037B03",
"6 c #037C03",
"7 c #0B700B",
"8 c #126413",
"9 c #214922",
"0 c #214D22",
"q c #29412A",
"w c None",
/* pixels */
"wwwwwwwwww@@@@-:666666wwwwwwwwww",
"wwwwwwwww@@$$$><6666666wwwwwwwww",
"wwwwwwww@@@;::2666666666wwwwwwww",
"wwwwwwww@$;9  8668qq0666wwwwwwww",
"wwwwwwww@$:9.o+66+oX0666wwwwwwww",
"wwwwwwwwww::&o+66+o=66wwwwwwwwww",
"wwwwwwwwwww:%O*667+16wwwwwwwwwww",
"wwwwwwwwwww:::2666666wwwwwwwwwww",
"wwwwwwwwwwwww:::666wwwwwwwwwwwww",
"wwwwwwwwwwwww:::236wwwwwwwwwwwww",
"wwwwwwwwwwwwww::::wwwwwwwwwwwwww",
"wwwwwwwwwww@@@-:45666wwwwwwwwwww",
"wwwwwwwwwww###-:66666wwwwwwwwwww",
"ww::::2662::::::6666666662::::ww",
"www:>24ww<::::<26666666ww42>:www",
"www:,6wwww::::26666666wwww6,:www",
"www::www@$::::2666666666www::www",
"wwwwwwww@$::::2666666666wwwwwwww",
"wwwwwwww@$::::2666666666wwwwwwww",
"wwwwwwww@$::::>,66666666wwwwwwww",
"wwwwwwww@$;:::::66666666wwwwwwww",
"wwwwwwwwww@;::::666666wwwwwwwwww",
"wwwwwwwwwww$-:::<2666wwwwwwwwwww",
"wwwwwwwwwww@#::::<666wwwwwwwwwww",
"wwwwwwwwwww@-6wwww:46wwwwwwwwwww",
"wwwwwwwwwww@-6wwww:46wwwwwwwwwww",
"wwwwwwwwwww@-6wwww:46wwwwwwwwwww",
"wwwwwwwwwww;>6wwww466wwwwwwwwwww",
"wwwwwwwwwww:,6wwww666wwwwwwwwwww",
"wwwwwwwwwww:,6wwww666wwwwwwwwwww",
"wwwwwwwwwww:,6wwww666wwwwwwwwwww",
"wwwwwwwwwww:,6wwww666wwwwwwwwwww"
};
