/* XPM */
static char *_a4091f7449b4b76d1f508f48c36e5d3jgvpMzRrCxDAFAaA[] = {
/* columns rows colors chars-per-pixel */
"50 50 84 1 ",
"  c #190F58",
". c #036D03",
"X c #036F03",
"o c #037203",
"O c #037C03",
"+ c #132743",
"@ c #0E3E2D",
"# c #036E03",
"$ c #037303",
"% c #037703",
"& c #0E462D",
"* c #132A43",
"= c #52434D",
"- c #AEAEB0",
"; c #588D59",
": c #1A521B",
"> c #323234",
", c #1A571B",
"< c #63A063",
"1 c gray77",
"2 c #3E376E",
"3 c #645F84",
"4 c #87A188",
"5 c #5E935E",
"6 c #0E620F",
"7 c #0E690F",
"8 c #8FAD90",
"9 c #B9B9BA",
"0 c #C1C1C2",
"q c #D5D5D5",
"w c #5E955E",
"e c #67A467",
"r c #BDBDBE",
"t c gray80",
"y c #B3B3B5",
"u c #8BA78C",
"i c #639B63",
"p c #037403",
"a c #6CA86C",
"s c #9AB89A",
"d c #BEBEBF",
"f c #6CA36C",
"g c #777297",
"h c #D0D0D0",
"j c #9DB79D",
"k c #6CA16C",
"l c #378937",
"z c #368E36",
"x c #9DBB9D",
"c c #948C91",
"v c #589059",
"b c #87A388",
"n c #65A265",
"m c #679F67",
"M c #9AB59A",
"N c #629962",
"B c #639863",
"V c #96B296",
"C c #609561",
"Z c #65A165",
"A c #9DB89D",
"S c #629E62",
"D c #5E9A5E",
"F c #96B096",
"G c #679C67",
"H c #037003",
"J c #92B093",
"K c gray78",
"L c #629762",
"P c #CBCBCB",
"I c #348934",
"U c #368B36",
"Y c #629F63",
"T c #6F6A8E",
"R c #B7B7B9",
"E c #6CA26C",
"W c #609C60",
"Q c #659F65",
"! c #67A367",
"~ c #443C73",
"^ c #589559",
"/ c #336943",
"( c #336E43",
") c #0E412D",
/* pixels */
"               .......XooOOOOOOOOOO               ",
"               .......XooOOOOOOOOOO               ",
"            +@@..#XXXX$%%OOOOOOOOOO&&*            ",
"            @....Xoooo%OOOOOOOOOOOOOO&            ",
"        =   @....Xoooo%OOOOOOOOOOOOOO&            ",
"          --;..oo:>>>>,OOOO,>>>>,OOOO<11          ",
"          --;..oo:>>>>,OOOO,>>>>,OOOO<11          ",
"       233--455oo6::>>,OOOO,>>,,7OO<<899332       ",
"       3----911ooooo>>,OOOO,>>OOOOO119----3       ",
"       3----911ooooo>>,OOOO,>>OOOOO119----3 =     ",
"     --0qq119----woooo%OOOOOOOOOe11119----911     ",
"     --0qq119----woooo%OOOOOOOOOe11119----911     ",
"     --rtt99y----uiioop%%OOOOOaas1199y--99d11     ",
"     --911-------911oooooOOOOOqqt11-----11111     ",
"     --911-------911oooooOOOOOqqt11-----11111     ",
"  3--qqt111111111tqqqqfoooofqqqqt11qqqqqqqqqqqqg  ",
"  3--qqt111111111tqqqqfoooofqqqqt11qqqqqqqqqqqqg  ",
"  3--qqhtttttttttjkkkkloo%%zeeaaxttqqhttqqqqqqqg  ",
"  3--qqqqqqqqqqqqk....XooOOOOOOOaqqqqt11qqqqqqqc  ",
"  3--qqqqqqqqqqqqk....XooOOOOOOOaqqqqt11qqqqqqqg  ",
"--voooooooOOOOOooooooooooOOOOOOOOOOOOOOOooooooofqq",
"--voooooooOOOOOooooooooooOOOOOOOOOOOOOOOooooooofqq",
"--bwwoop%%<<neeooooooop%%OOOOOOOOOO<<<<<%%poommMtt",
"--911oo%OO11111ooooooo%OOOOOOOOOOOO11111OO%oo11111",
"--911oo%OO11111ooooooo%OOOOOOOOOOOO11111OO%oo11111",
"qqqqqooN--11B..ooooooo%OOOOOOOOOOOOOOe11qqfoo11111",
"qqqqqooN--11B..ooooooo%OOOOOOOOOOOOOOe11qqfoo11111",
"qqqqqffV9999C..ooooooo%OOOOOOOOOOOOOOZ99ttAffttttt",
"qqqqqqqt11--5..ooooooo%OOOOOOOOOOOOOOS--11tqqqqqqq",
"qqqqqqqt11--5..ooooooo%OOOOOOOOOOOOOOS--11tqqqqqqq",
"  3--qqqqqqqk..ooooooooooOOOOOOOOOOOOD--11tqqqqg =",
"  3--qqqqqqqk..ooooooooooOOOOOOOOOOOOD--11tqqqqg  ",
"  3--qqqqq00FGGXXHoooooooOOOOOOOOOOeeJ9999Kqqqqg  ",
"  3--qqqqq--911..XoooooooOOOOOOOOOOqqt11--0qqqqg  ",
"  3--qqqqq--911..XoooooooOOOOOOOOOOqqt11--0qqqqg  ",
"     qqqqq11tqqqqL..ooooooo%OOOO<11-------911     ",
"     qqqqq11tqqqqL..ooooooo%OOOO<11-------911     ",
"     00PqqtthqqqqG..%%ImmffU%%OOYtt99y----911     ",
"     --0qqqqqqqqqk..OO<11qqmooOOSqq119----911     ",
"     --0qqqqqqqqqk..OO<11qqmooOOSqq119----911     ",
"       3----0qqqqk..OOD--11mooOOaqqqq0--11T       ",
"       3----0qqqqk..OOD--11mooOOaqqqq0--11T       ",
"  =    233--R00qqEXXOOW--11Q%%OO!0000R--TT~     = ",
"          -----qqfooOOS--11<OOOOS-------          ",
"          -----qqfooOOS--11<OOOOS-------          ",
"               --vooOOaqqqqeOOOO^--          =    ",
"               --vooOOaqqqqeOOOO^--  =            ",
"               33/ooOOaqqqqZOOOO(33               ",
"                 )ooOOaqqqqSOOOO&                 ",
"                 )ooOOaqqqqSOOOO&                 "
};
