/* XPM */
static char *en[] = {
/* columns rows colors chars-per-pixel */
"100 100 5 1 ",
"  c None",
". c #323234",
"X c #036D03",
"o c #037203",
"O c #037C03",
/* pixels */
"                              XXXXXXXXXXXXXXXoooooOOOOOOOOOOOOOOOOOOOO                              ",
"                              XXXXXXXXXXXXXXXoooooOOOOOOOOOOOOOOOOOOOO                              ",
"                              XXXXXXXXXXXXXXXoooooOOOOOOOOOOOOOOOOOOOO                              ",
"                              XXXXXXXXXXXXXXXoooooOOOOOOOOOOOOOOOOOOOO                              ",
"                              XXXXXXXXXXXXXXXoooooOOOOOOOOOOOOOOOOOOOO                              ",
"                         XXXXXXXXXXooooooooooOOOOOOOOOOOOOOOOOOOOOOOOOOOOOO                         ",
"                         XXXXXXXXXXooooooooooOOOOOOOOOOOOOOOOOOOOOOOOOOOOOO                         ",
"                         XXXXXXXXXXooooooooooOOOOOOOOOOOOOOOOOOOOOOOOOOOOOO                         ",
"                         XXXXXXXXXXooooooooooOOOOOOOOOOOOOOOOOOOOOOOOOOOOOO                         ",
"                         XXXXXXXXXXooooooooooOOOOOOOOOOOOOOOOOOOOOOOOOOOOOO                         ",
"                         XXXXXooooo..........OOOOOOOOOO..........OOOOOOOOOO                         ",
"                         XXXXXooooo..........OOOOOOOOOO..........OOOOOOOOOO                         ",
"                         XXXXXooooo..........OOOOOOOOOO..........OOOOOOOOOO                         ",
"                         XXXXXooooo..........OOOOOOOOOO..........OOOOOOOOOO                         ",
"                         XXXXXooooo..........OOOOOOOOOO..........OOOOOOOOOO                         ",
"                              oooooooooo.....OOOOOOOOOO.....OOOOOOOOOO                              ",
"                              oooooooooo.....OOOOOOOOOO.....OOOOOOOOOO                              ",
"                              oooooooooo.....OOOOOOOOOO.....OOOOOOOOOO                              ",
"                              oooooooooo.....OOOOOOOOOO.....OOOOOOOOOO                              ",
"                              oooooooooo.....OOOOOOOOOO.....OOOOOOOOOO                              ",
"                                   ooooooooooOOOOOOOOOOOOOOOOOOOO                                   ",
"                                   ooooooooooOOOOOOOOOOOOOOOOOOOO                                   ",
"                                   ooooooooooOOOOOOOOOOOOOOOOOOOO                                   ",
"                                   ooooooooooOOOOOOOOOOOOOOOOOOOO                                   ",
"                                   ooooooooooOOOOOOOOOOOOOOOOOOOO                                   ",
"                                        ooooooooooOOOOOOOOOO                                        ",
"                                        ooooooooooOOOOOOOOOO                                        ",
"                                        ooooooooooOOOOOOOOOO                                        ",
"                                        ooooooooooOOOOOOOOOO                                        ",
"                                        ooooooooooOOOOOOOOOO                                        ",
"                                             oooooooooo                                             ",
"                                             oooooooooo                                             ",
"                                             oooooooooo                                             ",
"                                             oooooooooo                                             ",
"                                             oooooooooo                                             ",
"                                   XXXXXXXXXXoooooOOOOOOOOOOOOOOO                                   ",
"                                   XXXXXXXXXXoooooOOOOOOOOOOOOOOO                                   ",
"                                   XXXXXXXXXXoooooOOOOOOOOOOOOOOO                                   ",
"                                   XXXXXXXXXXoooooOOOOOOOOOOOOOOO                                   ",
"                                   XXXXXXXXXXoooooOOOOOOOOOOOOOOO                                   ",
"     oooooooooooooooOOOOOOOOOOooooooooooooooooooooOOOOOOOOOOOOOOOOOOOOOOOOOOOOOOooooooooooooooo     ",
"     oooooooooooooooOOOOOOOOOOooooooooooooooooooooOOOOOOOOOOOOOOOOOOOOOOOOOOOOOOooooooooooooooo     ",
"     oooooooooooooooOOOOOOOOOOooooooooooooooooooooOOOOOOOOOOOOOOOOOOOOOOOOOOOOOOooooooooooooooo     ",
"     oooooooooooooooOOOOOOOOOOooooooooooooooooooooOOOOOOOOOOOOOOOOOOOOOOOOOOOOOOooooooooooooooo     ",
"     oooooooooooooooOOOOOOOOOOooooooooooooooooooooOOOOOOOOOOOOOOOOOOOOOOOOOOOOOOooooooooooooooo     ",
"          oooooOOOOO          oooooooooooooooOOOOOOOOOOOOOOOOOOOOOOOOO          OOOOOooooo          ",
"          oooooOOOOO          oooooooooooooooOOOOOOOOOOOOOOOOOOOOOOOOO          OOOOOooooo          ",
"          oooooOOOOO          oooooooooooooooOOOOOOOOOOOOOOOOOOOOOOOOO          OOOOOooooo          ",
"          oooooOOOOO          oooooooooooooooOOOOOOOOOOOOOOOOOOOOOOOOO          OOOOOooooo          ",
"          oooooOOOOO          oooooooooooooooOOOOOOOOOOOOOOOOOOOOOOOOO          OOOOOooooo          ",
"          ooooo          XXXXXoooooooooooooooOOOOOOOOOOOOOOOOOOOOOOOOOOOOOO          ooooo          ",
"          ooooo          XXXXXoooooooooooooooOOOOOOOOOOOOOOOOOOOOOOOOOOOOOO          ooooo          ",
"          ooooo          XXXXXoooooooooooooooOOOOOOOOOOOOOOOOOOOOOOOOOOOOOO          ooooo          ",
"          ooooo          XXXXXoooooooooooooooOOOOOOOOOOOOOOOOOOOOOOOOOOOOOO          ooooo          ",
"          ooooo          XXXXXoooooooooooooooOOOOOOOOOOOOOOOOOOOOOOOOOOOOOO          ooooo          ",
"                         XXXXXoooooooooooooooOOOOOOOOOOOOOOOOOOOOOOOOOOOOOO                         ",
"                         XXXXXoooooooooooooooOOOOOOOOOOOOOOOOOOOOOOOOOOOOOO                         ",
"                         XXXXXoooooooooooooooOOOOOOOOOOOOOOOOOOOOOOOOOOOOOO                         ",
"                         XXXXXoooooooooooooooOOOOOOOOOOOOOOOOOOOOOOOOOOOOOO                         ",
"                         XXXXXoooooooooooooooOOOOOOOOOOOOOOOOOOOOOOOOOOOOOO                         ",
"                         XXXXXooooooooooooooooooooOOOOOOOOOOOOOOOOOOOOOOOOO                         ",
"                         XXXXXooooooooooooooooooooOOOOOOOOOOOOOOOOOOOOOOOOO                         ",
"                         XXXXXooooooooooooooooooooOOOOOOOOOOOOOOOOOOOOOOOOO                         ",
"                         XXXXXooooooooooooooooooooOOOOOOOOOOOOOOOOOOOOOOOOO                         ",
"                         XXXXXooooooooooooooooooooOOOOOOOOOOOOOOOOOOOOOOOOO                         ",
"                              XXXXXoooooooooooooooOOOOOOOOOOOOOOOOOOOO                              ",
"                              XXXXXoooooooooooooooOOOOOOOOOOOOOOOOOOOO                              ",
"                              XXXXXoooooooooooooooOOOOOOOOOOOOOOOOOOOO                              ",
"                              XXXXXoooooooooooooooOOOOOOOOOOOOOOOOOOOO                              ",
"                              XXXXXoooooooooooooooOOOOOOOOOOOOOOOOOOOO                              ",
"                                   XXXXXoooooooooooooooOOOOOOOOOO                                   ",
"                                   XXXXXoooooooooooooooOOOOOOOOOO                                   ",
"                                   XXXXXoooooooooooooooOOOOOOOOOO                                   ",
"                                   XXXXXoooooooooooooooOOOOOOOOOO                                   ",
"                                   XXXXXoooooooooooooooOOOOOOOOOO                                   ",
"                                   XXXXXOOOOO          oooooOOOOO                                   ",
"                                   XXXXXOOOOO          oooooOOOOO                                   ",
"                                   XXXXXOOOOO          oooooOOOOO                                   ",
"                                   XXXXXOOOOO          oooooOOOOO                                   ",
"                                   XXXXXOOOOO          oooooOOOOO                                   ",
"                                   XXXXXOOOOO          oooooOOOOO                                   ",
"                                   XXXXXOOOOO          oooooOOOOO                                   ",
"                                   XXXXXOOOOO          oooooOOOOO                                   ",
"                                   XXXXXOOOOO          oooooOOOOO                                   ",
"                                   XXXXXOOOOO          oooooOOOOO                                   ",
"                                   oooooOOOOO          OOOOOOOOOO                                   ",
"                                   oooooOOOOO          OOOOOOOOOO                                   ",
"                                   oooooOOOOO          OOOOOOOOOO                                   ",
"                                   oooooOOOOO          OOOOOOOOOO                                   ",
"                                   oooooOOOOO          OOOOOOOOOO                                   ",
"                                   oooooOOOOO          OOOOOOOOOO                                   ",
"                                   oooooOOOOO          OOOOOOOOOO                                   ",
"                                   oooooOOOOO          OOOOOOOOOO                                   ",
"                                   oooooOOOOO          OOOOOOOOOO                                   ",
"                                   oooooOOOOO          OOOOOOOOOO                                   ",
"                                   oooooOOOOO          OOOOOOOOOO                                   ",
"                                   oooooOOOOO          OOOOOOOOOO                                   ",
"                                   oooooOOOOO          OOOOOOOOOO                                   ",
"                                   oooooOOOOO          OOOOOOOOOO                                   ",
"                                   oooooOOOOO          OOOOOOOOOO                                   "
};
