/* XPM */
static char *_2a54f67909248f69e0af43017b1c6029HwIivPXkoJC1jPR[] = {
/* columns rows colors chars-per-pixel */
"50 50 124 2 ",
"   c #190F58",
".  c #512679",
"X  c #351B69",
"o  c #036D03",
"O  c #036F03",
"+  c #037203",
"@  c #037C03",
"#  c #6A458D",
"$  c #303253",
"%  c #0E3E2D",
"&  c #036E03",
"*  c #037303",
"=  c #037703",
"-  c #366048",
";  c #50526A",
":  c #2A493E",
">  c #52434D",
",  c #AEAEB0",
"<  c #588D59",
"1  c #1A521B",
"2  c #323234",
"3  c #1A571B",
"4  c #271560",
"5  c #482E74",
"6  c #5A427E",
"7  c #8C799E",
"8  c #74867E",
"9  c #5E935E",
"0  c #0E620F",
"q  c #0E690F",
"w  c #487655",
"e  c #6D7C7D",
"r  c #917FA3",
"t  c #675289",
"y  c #4E3679",
"u  c #645F84",
"i  c gray77",
"p  c #8D71A8",
"a  c #A395B1",
"s  c #9583A7",
"d  c #B9B9BA",
"f  c #487155",
"g  c #67A467",
"h  c #9381A5",
"j  c #A092AE",
"k  c #9D8FAC",
"l  c #809587",
"z  c #639B63",
"x  c #037403",
"c  c #6CA86C",
"v  c #9AB89A",
"b  c #9481A6",
"n  c #9784A8",
"m  c #D5D5D5",
"M  c gray80",
"N  c #9B88AC",
"B  c #A89AB6",
"V  c #6CA36C",
"C  c #B1A3BE",
"Z  c #9F8DB1",
"A  c #644C88",
"S  c #7F6A94",
"D  c #9D8AAE",
"F  c #AC9EBA",
"G  c #9DB79D",
"H  c #6CA16C",
"J  c #378937",
"K  c #368E36",
"L  c #9DBB9D",
"P  c #AEA0BC",
"I  c #937DA7",
"U  c #725985",
"Y  c #2A4C3E",
"T  c #565C6A",
"R  c #5E955E",
"E  c #568C5D",
"W  c #63A063",
"Q  c #679F67",
"!  c #5C626F",
"~  c #856F99",
"^  c #8A759E",
"/  c #629962",
"(  c #486F55",
")  c #365B48",
"_  c #7E9187",
"`  c #65A165",
"'  c #7B8888",
"]  c #755792",
"[  c #629E62",
"{  c #5D3583",
"}  c #7B5B9A",
"|  c #5E9A5E",
" . c #C1C1C2",
".. c #96B096",
"X. c #679C67",
"o. c #037003",
"O. c #859C8C",
"+. c #A191B0",
"@. c #604085",
"#. c #629762",
"$. c #9A88AC",
"%. c #348934",
"&. c #368B36",
"*. c #629F63",
"=. c #A799B5",
"-. c #6C578D",
";. c #513463",
":. c #422A73",
">. c #543E7E",
",. c #A294B0",
"<. c #6CA26C",
"1. c #609C60",
"2. c #659F65",
"3. c #67A367",
"4. c #8E77A5",
"5. c #51387B",
"6. c #5E446D",
"7. c #3B226E",
"8. c #796896",
"9. c #3E6D4C",
"0. c #5A8F60",
"q. c #3E724C",
"w. c #0E412D",
"e. c #0E462D",
/* pixels */
"                    . . X     o o o o o o o O + + @ @ @ @ @ @ @ @ @ @ # # # # #     X . .           ",
"                    . . X     o o o o o o o O + + @ @ @ @ @ @ @ @ @ @ # # # # #     X . .           ",
"                    . . $ % % o o & O O O O * = = @ @ @ @ @ @ @ @ @ @ - - ; # #     X . .           ",
"                    . . : o o o o O + + + + = @ @ @ @ @ @ @ @ @ @ @ @ @ @ - # #     X . .           ",
"                >   . . : o o o o O + + + + = @ @ @ @ @ @ @ @ @ @ @ @ @ @ - # #     X . .           ",
"          . . . . . , , < o o + + 1 2 2 2 2 3 @ @ @ @ 3 2 2 2 2 3 @ @ @ @ - # #     X . .           ",
"          . . . . . , , < o o + + 1 2 2 2 2 3 @ @ @ @ 3 2 2 2 2 3 @ @ @ @ - # #     X . .           ",
"    4 X X X X 5 6 6 7 7 8 9 9 + + 0 1 1 2 2 3 @ @ @ @ 3 2 2 3 3 q @ @ w w e r r t t y X X X X 4     ",
"    X . .     u , , # # r i i + + + + + 2 2 3 @ @ @ @ 3 2 2 @ @ @ @ @ p p a , , # # t     . . X     ",
"    X . .     u , , # # r i i + + + + + 2 2 3 @ @ @ @ 3 2 2 @ @ @ @ @ p p a , , # # t   > . . X     ",
"    X . . , , s # # i i d , , p p f + + + + = @ @ @ @ @ @ @ @ @ g i i p p a , , # # r i i . . X     ",
"    X . . , , s # # i i d , , p p f + + + + = @ @ @ @ @ @ @ @ @ g i i p p a , , # # r i i . . X     ",
"    X . . , , h # # a a j k k k k l z z + + x = = @ @ @ @ @ c c v i i a a j k k r r b n n . . X     ",
"    X . . , , r # # p p p p p , , d i i + + + + + @ @ @ @ @ m m M i i , , k p p i i n # # . . X     ",
"    X . . , , r # # p p p p p , , d i i + + + + + @ @ @ @ @ m m M i i , , k p p i i n # # . . X     ",
"    6 . . # # N i i p p B i i i i M m m m m V + + + + V m m m m M i i m m C p p m m Z # # . . A     ",
"    6 . . # # N i i p p B i i i i M m m m m V + + + + V m m m m M i i m m C p p m m Z # # . . A     ",
"X X 6 S S # # D M M p p F M M M M G H H H H J + + = = K g g c c L M M m m P p p m m Z # # I I A X X ",
". . 6 , , # # Z m m p p C m m m m H o o o o O + + @ @ @ @ @ @ @ c m m m m F p p m m Z # # m m U . . ",
". . 6 , , # # Z m m p p C m m m m H o o o o O + + @ @ @ @ @ @ @ c m m m m F p p m m Z # # m m A . . ",
". . Y + + + + + + + @ @ @ @ @ + + + + + + + + + + @ @ @ @ @ @ @ @ @ @ @ @ @ @ @ + + + + + + + Y . . ",
". . Y + + + + + + + @ @ @ @ @ + + + + + + + + + + @ @ @ @ @ @ @ @ @ @ @ @ @ @ @ + + + + + + + Y . . ",
". . T R R + + x = = w w E g g + + + + + + + x = = @ @ @ @ @ @ @ @ @ @ W W W W W = = x + + Q Q ! . . ",
". . ~ i i + + = @ @ p p B i i + + + + + + + = @ @ @ @ @ @ @ @ @ @ @ @ i i i i i @ @ = + + i i ^ . . ",
". . ~ i i + + = @ @ p p B i i + + + + + + + = @ @ @ @ @ @ @ @ @ @ @ @ i i i i i @ @ = + + i i ^ . . ",
". . I m m + + / , , p p ( o o + + + + + + + = @ @ @ @ @ @ @ @ @ @ @ @ @ @ g i i p p f + + i i ^ . . ",
". . I m m + + / , , p p ( o o + + + + + + + = @ @ @ @ @ @ @ @ @ @ @ @ @ @ g i i p p f + + i i ^ . . ",
". . I m m ) ) _ d d p p ( o o + + + + + + + = @ @ @ @ @ @ @ @ @ @ @ @ @ @ ` d d p p ' V V N N ] . . ",
". . I m m # # N i i p p ( o o + + + + + + + = @ @ @ @ @ @ @ @ @ @ @ @ @ @ [ , , p p F m m # # { . . ",
". . I m m # # N i i p p ( o o + + + + + + + = @ @ @ @ @ @ @ @ @ @ @ @ @ @ [ , , p p F m m # # { . . ",
". . 6 , , # # } p p m m H o o + + + + + + + + + + @ @ @ @ @ @ @ @ @ @ @ @ | , , p p F m m # # { . . ",
". . 6 , , # # } p p m m H o o + + + + + + + + + + @ @ @ @ @ @ @ @ @ @ @ @ | , , p p F m m # # { . . ",
". . 6 , , # # } p p  . ...X.X.O O o.+ + + + + + + @ @ @ @ @ @ @ @ @ @ g g O.a a a a +.Z Z { { @.X X ",
". . 6 , , # # } p p , , d i i o o O + + + + + + + @ @ @ @ @ @ @ @ @ @ m m F p p , , s # # . . A     ",
". . 6 , , # # } p p , , d i i o o O + + + + + + + @ @ @ @ @ @ @ @ @ @ m m F p p , , s # # . . A     ",
"    X . . # # Z m m p p F m m m m #.o o + + + + + + + = @ @ @ @ W i i , , k p p , , r # # . . X     ",
"    X . . # # Z m m p p F m m m m #.o o + + + + + + + = @ @ @ @ W i i , , k p p , , r # # . . X     ",
"    X . . # # $.m m p p P m m m m X.o o = = %.Q Q V V &.= = @ @ *.M M d d j p p 7 7 r n n . . X     ",
"    X . . # # s m m p p C m m m m H o o @ @ W i i m m Q + + @ @ [ m m i i a p p # # r i i . . X     ",
"    X . . # # s m m p p C m m m m H o o @ @ W i i m m Q + + @ @ [ m m i i a p p # # r i i . . X     ",
"    X . . # # t , , , , =.p p m m H o o @ @ | , , i i Q + + @ @ c m m p p =., , # # -.    . . X     ",
"    X . . # # t , , , , =.p p m m H o o @ @ | , , i i Q + + @ @ c m m p p =., , # # -.    . . X     ",
"    ;.. . :.:.>.t t , , ,.p p m m <.O O @ @ 1., , i i 2.= = @ @ 3. . .p p 4.7 7 -.-.5.X X X X 4 >   ",
"    X . .     :.# # , , k p p m m V + + @ @ [ , , i i W @ @ @ @ [ , , p p } # #     X . .           ",
"    X . .     :.# # , , k p p m m V + + @ @ [ , , i i W @ @ @ @ [ , , p p } # #     X . .           ",
"    X . .     :.# # # # :.    p p f + + @ @ w p p p p w @ @ @ @ w p p     :.# #     X . . >         ",
"    X . .     :.# # # # :.    p p f + + @ @ w p p p p w @ @ @ @ w p p     6.# #     X . .           ",
"    4 X X X X 7.:.:.:.:.:.:.:.8.8.9.+ + @ @ 0.C C p p w @ @ @ @ q.8.8.:.:.:.:.:.X X X X X           ",
"          . . X         :.# #     w.+ + @ @ c m m p p w @ @ @ @ e.    # # :.    . . X               ",
"          . . X         :.# #     w.+ + @ @ c m m p p w @ @ @ @ e.    # # :.    . . X               "
};
