/* XPM */
static char *pl_1[] = {
/* columns rows colors chars-per-pixel */
"32 32 75 1 ",
"  c #293F2A",
". c #2A3C2C",
"X c #2A3E2C",
"o c #323234",
"O c #165817",
"+ c #165E17",
"@ c #036D03",
"# c #036E03",
"$ c #036F03",
"% c #076D07",
"& c #0C650D",
"* c #0B6E0B",
"= c #0C6D0D",
"- c #037003",
"; c #037103",
": c #037203",
"> c #037303",
", c #037403",
"< c #037603",
"1 c #077607",
"2 c #037803",
"3 c #037903",
"4 c #037A03",
"5 c #037B03",
"6 c #037C03",
"7 c #0B700B",
"8 c #0A720B",
"9 c #0A7B0B",
"0 c #126413",
"q c #126C17",
"w c #107212",
"e c #147217",
"r c #107B12",
"t c #147B17",
"y c #214922",
"u c #214D22",
"i c #29412A",
"p c #1F7224",
"a c #1F7A24",
"s c #237929",
"d c #286835",
"f c #2C603A",
"g c #2C7234",
"h c #35763E",
"j c #482F6B",
"k c #413660",
"l c #512679",
"z c #52287A",
"x c #552A7C",
"c c #562D7D",
"v c #32444A",
"b c #377841",
"n c #415B56",
"m c #51506C",
"M c #567166",
"N c #567566",
"B c #647377",
"V c #5A3180",
"C c #5B3281",
"Z c #603985",
"A c #653F89",
"S c #67418A",
"D c #69448C",
"F c #6A458D",
"G c #6D498F",
"H c #704C92",
"J c #714E92",
"K c #755395",
"L c #7B5A9A",
"P c #7F5F9D",
"I c #707385",
"U c #717387",
"Y c #8364A0",
"T c #8D71A8",
"R c None",
/* pixels */
"RRRRRRllRR@@@@-:666666nFFFRllRRR",
"RRRRRRllR@@$$$><666666dnFFRllRRR",
"RRRRRRll@@@;::2666666666FFRllRRR",
"RRRlllRR@$;y  0660iiu666FFRllRRR",
"RRRlllRR@$:y.o+66+oXu6taFFRzlRRR",
"RRlRRRFFRR::&o+66+o=66NTRRFRRlRR",
"RRlRRFRRRRMe%O*667+16RITRRFRRlRR",
"RRlRRFRRRRTp::2666666RTTRRFRRlRR",
"RRlRRFPTTTRRR:::666RRRRRTTRFAlRR",
"RRlZRFYTTRRRR:::236RRRRRTTRFAlRR",
"RRlAFRTTRRRRRR::::RRRRRRTTRFAlRR",
"llRDFRTTRRR@@@-:45666RRRTTRFDRll",
"ljRmmRBURRR###-:66666RRRUBRmmRjl",
"lv::::2662::::::6666666662::::vl",
"lkR:>2hNR<::::<26666666RR32>:Rkl",
"llR:,6NTRR::::26666666RRRR6,:Rll",
"llR::RTT@$::::2666666666RRTp:Rll",
"llRffRTT@$::::2666666666RRTgqRcl",
"llRFFRTT@$::::2666666666RRTRRFCl",
"llRFHTRR@$::::>,66666666RRTRRFCl",
"llRFJTRR@$;:::::66666666RRTRRAVl",
"llRFJTRRRR@;::::666666RRTTRFAlRR",
"RRlSGRTTRRR$-:::<2666RRRTTRFAlRR",
"RRlAFRTTRRR@#::::<666RRRTTRFAlRR",
"RRlAFRTTRRR@-6RRRR:46RRRTPFRRlRR",
"RRlAFRRTRRR@-6RRRR:46RRRTLFRRlRR",
"RRlAFRRRTTR@-6RRRR:46RTTRRFRRlRR",
"RRlRRFRRTTR;>6RRRR466RTTFFRzlRRR",
"RRlRRFFRTTR8,6sRRs669RTTFFRllRRR",
"RRlRRFFFRRTp,6NTTN66aTRRFFRllRRR",
"RRRlxRRRFKRw,6bRTN66rRKFRRlRRRRR",
"RRRllRRRFFR:,6RRTN666RFFRRlRRRRR"
};
