/* XPM */
static char *_ffaac7c55bb4e3cda5018b2fed52ebbeaUciLoodZq8YkJH[] = {
/* columns rows colors chars-per-pixel */
"50 50 90 1 ",
"  c #190F58",
". c #AEAEB0",
"X c #A25859",
"o c #960303",
"O c #AE1D1D",
"+ c #AE6566",
"@ c #777297",
"# c #6D688D",
"$ c #645F84",
"% c #9F5758",
"& c #9A2C2D",
"* c #B34646",
"= c #B76F6F",
"- c #D5D5D5",
"; c #C1C1C2",
": c #910000",
"> c #930101",
", c #52434D",
"< c gray77",
"1 c gray80",
"2 c #8D0202",
"3 c #8F0101",
"4 c #A21010",
"5 c #3E376E",
"6 c #B3B3B5",
"7 c #B9B9BA",
"8 c #959595",
"9 c #6A6A6A",
"0 c #460101",
"q c #470000",
"w c #480000",
"e c #4B0101",
"r c #510808",
"t c #570E0E",
"y c gray40",
"u c gray60",
"i c #BEBEBF",
"p c #606061",
"a c black",
"s c #626262",
"d c #BCBBBB",
"f c #BFBCBC",
"g c #D1CECE",
"h c #E0DEDE",
"j c #F0EFEF",
"k c #D6D5D5",
"l c #BDBDBE",
"z c #B7B5B6",
"x c #C2C0C0",
"c c #C8C5C5",
"v c #E8E6E6",
"b c #DBDADA",
"n c #D2D1D1",
"m c #DDDDDD",
"M c #CBCBCB",
"N c #D0D0D0",
"B c #CFCDCD",
"V c #DAD9D9",
"C c #D7D5D5",
"Z c #E2E0E0",
"A c #948C91",
"S c #C5C4C4",
"D c #C3C2C2",
"F c #ECEAEA",
"G c #C1C0C0",
"H c gray78",
"J c #8E8E8E",
"K c #5F5E5E",
"L c #706F6F",
"P c #9B9B9B",
"I c #5C5C5D",
"U c #BDBCBC",
"Y c gray54",
"T c #A0A0A0",
"R c gray64",
"E c gray27",
"W c #656565",
"Q c #676767",
"! c #322F42",
"~ c #373547",
"^ c #1F1B37",
"/ c #2D2D2E",
"( c #E4E2E2",
") c #221E39",
"_ c #0C072C",
"` c #575758",
"' c #AFAFAF",
"] c gray67",
"[ c #8D8D8D",
"{ c #868686",
/* pixels */
"                    ..XooOO+..                    ",
"                    ..XooOO+..                    ",
"               @@#$$%%&ooOO*==@@@@@               ",
"               --;..::>ooOOOOO-----               ",
"        ,      --;..::>ooOOOOO-----               ",
"          .....<<1--223::oo4OO-----<<<<<          ",
"          .....<<1--223::oo4OO-----<<<<<          ",
"       5$$..6777789900qwweerttyyu11<<i77$$5       ",
"       $....7<<..paaaaaaaaaaaaaas<<<<7....$       ",
"       $....7<<..paaaaaaaaaaaaaas<<<<7....$ ,     ",
"     ..;--<<7....dffgghjjjjjjjhhk<<<<7....7<<     ",
"     ..;--<<7....dffgghjjjjjjjhhk<<<<7....7<<     ",
"     ..l11776..zzxcchhvjjjjjjjhhbnn776..77i<<     ",
"     ..7<<.....ffcggjjjjjjjjjjhhhhh.....<<<<<     ",
"     ..7<<.....ffcggjjjjjjjjjjhhhhh.....<<<<<     ",
"  $..--1<<<<<<<ffcggjjmMMMMmjjjjvhh------------@  ",
"  $..--1<<<<<<<ffcggjjmMMMMmjjjjvhh------------@  ",
"  $..--N1111111ffBhhmmVkkkkVmmjjvhh--N11-------@  ",
"  $..----------ffCjjMMkZZZZkMMjjvhh--1<<-------A  ",
"  $..----------ffCjjMMkZZZZkMMjjvhh--1<<-------@  ",
".....--1<<<<SffgghjjMMkZZZZkMMjjvhhhhn<<--1<<-----",
".....--1<<<<SffgghjjMMkZZZZkMMjjvhhhhn<<--1<<-----",
"..67711111<<DffgghjjmmVkkkkVmmjjFvvhhn<<--N1111111",
"..7<<<<1--<<GffgghjjjjmMMMMmjjjjjjjhhn<<-----<<<<<",
"..7<<<<1--<<GffgghjjjjmMMMMmjjjjjjjhhn<<-----<<<<<",
"-------;..<<Gffjjjjjjjjjjjjjjjjjjjjhhk<<-----<<<<<",
"-------;..<<Gffjjjjjjjjjjjjjjjjjjjjhhk<<-----<<<<<",
"-------H7777JKKjjjjjjjjjjjjjjjjjjjjLLP7711N--11111",
"-------1<<..Iaajjjjjjjjjjjjjjjjjjjjaap..<<1-------",
"-------1<<..Iaajjjjjjjjjjjjjjjjjjjjaap..<<1-------",
"  $..-----aaaaajjjjjjjUYYYYUjjjjjjjaaaaa<<1----@ ,",
"  $..-----aaaaajjjjjjjUYYYYUjjjjjjjaaaaa<<1----@  ",
"  $..--T99aaaaajjjjjUURYYYYRUUjjjjjaaaaaII8----@  ",
"  $..--9aaaaaaajjjjjYYYYYYYYYYjjjjjaaaaaaap----@  ",
"  $..--9aaaaaaajjjjjYYYYYYYYYYjjjjjaaaaaaap----@  ",
"     --9aaaaaaajjjjjYYYYYYYEaajjjjjaaaaaaaI<<     ",
"     --9aaaaaaajjjjjYYYYYYYEaajjjjjaaaaaaaI<<     ",
"     ;;WaaaaaaavvFjjYYYYYYYQEEjjFvvaaaaaaaI<<     ",
"     ..paaaaaaahhvjjYYYYYYYYYYjjvhhaaaaaaaI<<     ",
"     ..paaaaaaahhvjjYYYYYYYYYYjjvhhaaaaaaaI<<     ",
"       !aaaaaaahhvjjYYYYYYYYYYjjvhhaaaaaaa~       ",
"       !aaaaaaahhvjjYYYYYYYYYYjjvhhaaaaaaa~       ",
"  ,    ^aaaa/pphh(vvUUUUUUUUUUvv(hhpp/aaaa)     , ",
"       _aaaa`..hhhhhjjjjjjjjjjhhhhh..`aaaa_       ",
"       _aaaa`..hhhhhjjjjjjjjjjhhhhh..`aaaa_       ",
"               YYYYYYY'----]YYYYYYY          ,    ",
"               YYYYYYY'----]YYYYYYY  ,            ",
"               EEEEEEE[----{EEEEEEE               ",
"               aaaaaaa9----paaaaaaa               ",
"               aaaaaaa9----paaaaaaa               "
};
