/* XPM */
static char *pl_3[] = {
/* columns rows colors chars-per-pixel */
"32 32 75 1 ",
"  c black",
". c #373737",
"X c #730101",
"o c #710202",
"O c #740000",
"+ c #780202",
"@ c #535353",
"# c #5A5959",
"$ c #606060",
"% c #696969",
"& c #737171",
"* c #757373",
"= c #7D7C7C",
"- c #8E0202",
"; c #800B0B",
": c #910000",
"> c #900101",
", c #920101",
"< c #940202",
"1 c #950202",
"2 c #960303",
"3 c #9B0808",
"4 c #8B1717",
"5 c #A21111",
"6 c #AE1D1D",
"7 c #868585",
"8 c #888787",
"9 c #898787",
"0 c gray54",
"q c #908F8F",
"w c #9E9E9E",
"e c #A5A3A3",
"r c #ABAAAA",
"t c #ACABAB",
"y c #B1B0B0",
"u c #BFBCBC",
"i c #BFBFBF",
"p c #C0BFBF",
"a c #C2BFBF",
"s c #C3C0C0",
"d c #C6C3C3",
"f c #CBCACA",
"g c #CBCBCB",
"h c #CDCACA",
"j c #CFCDCD",
"k c #D1CECE",
"l c #D1D0D0",
"z c #D3D0D0",
"x c #D2D2D2",
"c c #D4D3D3",
"v c #D7D5D5",
"b c #D9D8D8",
"n c #D9D9D9",
"m c #DAD9D9",
"M c #DCDBDB",
"N c #DDDCDC",
"B c #E0DEDE",
"V c #E1E0E0",
"C c #E1E1E1",
"Z c #E2E0E0",
"A c #E3E1E1",
"S c #E4E2E2",
"D c #E5E3E3",
"F c #E5E4E4",
"G c #E6E5E5",
"H c #E7E6E6",
"J c #E8E7E7",
"K c #E9E8E8",
"L c #EAE8E8",
"P c #EAE9E9",
"I c #ECEBEB",
"U c #EDECEC",
"Y c #EFEEEE",
"T c #F0EFEF",
"R c None",
/* pixels */
"RRRRRRRRRRRRRR2266RRRRRRRRRRRRRR",
"RRRRRRRRRRRRRR1266RRRRRRRRRRRRRR",
"RRRRRRRRRRRRR:<2666RRRRRRRRRRRRR",
"RRRRRRRRRRRRR->,356RRRRRRRRRRRRR",
"RRRRRRRRRRRRRoXO+;4RRRRRRRRRRRRR",
"RRRRRRRRRRR          RRRRRRRRRRR",
"RRRRRRRRRRR&*=9qqqq87RRRRRRRRRRR",
"RRRRRRRRRRRuskSTTTTABRRRRRRRRRRR",
"RRRRRRRRRRuhvTTTTTTABBRRRRRRRRRR",
"RRRRRRRRRRuhvTHCCHTJDBRRRRRRRRRR",
"RRRRRRRRRRuhvTmggmTTUBRRRRRRRRRR",
"RRRRRRRRRRuVFxbNNbxPUBRRRRRRRRRR",
"RRRRRRRRRasHKgbZZbgKUBBRRRRRRRRR",
"RRRRRRRRudkLKgbZZbgKUBBBRRRRRRRR",
"RRRRRRRRudkLUCnccnCUYLSBRRRRRRRR",
"RRRRRRRRudkLTTmggmTTTTGBRRRRRRRR",
"RRRRRRRRuzTTTTTTTTTTTTGBRRRRRRRR",
"RRRRRRRR&eTTTTTTTTTTTTy7RRRRRRRR",
"RRRRRRRR $TTTTTTTTTTTT$ RRRRRRRR",
"RRRRRRR  $TTTTiwwiTTTT$  RRRRRRR",
"RRRRRR   $TTIMr00rMITT$   RRRRRR",
"RRRRR    $TTM000000MTT$    RRRRR",
"RRRRR    $TTM0000%.fTT$    RRRRR",
"RRRRR    $TTM0000@ pTT$    RRRRR",
"RRRRR    #BUM000000MUB#    RRRRR",
"RRRRR    #BUM000000MUB#    RRRRR",
"RRRRR    #BUM000000MUB#    RRRRR",
"RRRRR   RtBAZMMMMMMZABtR   RRRRR",
"RRRRR   RRjjlMHTTHMljjRR   RRRRR",
"RRRRRRRRRR0000RRRR0000RRRRRRRRRR",
"RRRRRRRRRR....RRRR....RRRRRRRRRR",
"RRRRRRRRRR    RRRR    RRRRRRRRRR"
};
