/* XPM */
static char *pl_4[] = {
/* columns rows colors chars-per-pixel */
"32 32 62 1 ",
"  c #B78E0F",
". c #B88E0F",
"X c #B98F0F",
"o c #BA900F",
"O c #BC910F",
"+ c #BD920E",
"@ c #BE930E",
"# c #BF930E",
"$ c #B28A10",
"% c #B48C10",
"& c #B58C10",
"* c #C0940E",
"= c #C2950E",
"- c #C3960E",
"; c #C4970E",
": c #C5980E",
"> c #C7990E",
", c #C7990F",
"< c #C89A0E",
"1 c #C99A0E",
"2 c #CA9B0E",
"3 c #CA9B0F",
"4 c #CB9C0F",
"5 c #CC9D0F",
"6 c #CE9E0E",
"7 c #CE9F0E",
"8 c #CE9E0F",
"9 c #CE9F0F",
"0 c #CFA00F",
"q c #D0A00F",
"w c #D1A10F",
"e c #D2A20E",
"r c #D3A20E",
"t c #D4A30E",
"y c #D5A40E",
"u c #D6A40E",
"i c #D7A50E",
"p c #D8A60E",
"a c #DAA80E",
"s c #DCA90E",
"d c #DDAA0E",
"f c #DCAA11",
"g c #DFAC13",
"h c #E0AC0F",
"j c #E2AE0F",
"k c #E7B10F",
"l c #E2AE10",
"z c #E7B214",
"x c #E9B415",
"c c #EDB819",
"v c #ECB91E",
"b c #F1B910",
"n c #F3BD19",
"m c #F5BF1F",
"M c #ECBB26",
"N c #F0BE26",
"B c #F7C324",
"V c #F6C327",
"C c #F8C428",
"Z c #F9C529",
"A c #FAC936",
"S c None",
/* pixels */
"SSSSS5555,********SSSSSSSSSSSSSS",
"SSSSS50ww6221:::**SSSSSSSSSSSSSS",
"SSSSSSppppppu555*****SSSSSSSSSSS",
"SSSSSSSSpppppuq5333=**SSSSSSSSSS",
"SSSSSSSSppppppe9999:=**SSSSSSSSS",
"SSSSSSSSSSSpppppppp93***SSSSSSSS",
"SSSSSSSSSSSSppppppp94,-**SSSSSSS",
"SSSSSSSSSSSSSpppppp955:***SSSSSS",
"SSSSSSSSSSSSSSppppppu555**SSSSSS",
"SSSSSSSSSSSSSSSpppppiw85:;SSSSSS",
"SSSSSSSSSSSSSSSSppppppw55,*SSSSS",
"SSSSSSSSSSSSSSSSSpppppw5543SSSSS",
"SSSSSSSSSSSSSSSSSSppppw5543SSSSS",
"SSSSSSSSSSSSSSSSSSppppw55,*SSSSS",
"SSSSSSSSSSSSSSSSSSvfppw55,*SSSSS",
"SSSSSSSSSSSSSSSSSSZgppw55,*SSSSS",
"SSSSSSSSSSSSSSSSSSZxlpw5***SSSSS",
"SSSSSSSSSSSSSSSSSSZxlptw***SSSSS",
"SSSSSSSSSSSSSSSSSSZxlppp***SSSSS",
"SSSSSSSSSSSSSSSSSSZxlppp*O&SSSSS",
"SSSSSSSSSSSSSSSSSCBzhpyr+X$SSSSS",
"SSSSSSSSSSSSSSSSAVbdpp2*$$$SSSSS",
"SSSSSSSSSSSSSSSAANjay2;*$$SSSSSS",
"SSSSSSSSSSSSSSAAAMppr***$$SSSSSS",
"SSSSSSSSSSSSSAmbppp:**.$$$SSSSSS",
"SSSSSSSSSSSSnVckpt7-#o&$$SSSSSSS",
"SSSSSSSSSSSbbbjpp7**+$$$SSSSSSSS",
"SSSSSSSSpppsdd7::-* %$$SSSSSSSSS",
"SSSSSSSSppptrr<*+++%$$SSSSSSSSSS",
"SSSSSSppppp:****$$$$$SSSSSSSSSSS",
"SSSSS*>2222=@...$$SSSSSSSSSSSSSS",
"SSSSS*******+$$$$$SSSSSSSSSSSSSS"
};
