/* XPM */
static char *_649460608c940beb0cee58cde021cdadjvAehSTZUn3pH7B[] = {
/* columns rows colors chars-per-pixel */
"50 50 218 2 ",
"   c #190F58",
".  c #AEAEB0",
"X  c #777297",
"o  c #6D688D",
"O  c #645F84",
"+  c #C1C1C2",
"@  c #D5D5D5",
"#  c #52434D",
"$  c gray77",
"%  c gray80",
"&  c #C2A345",
"*  c #CC9D0F",
"=  c #C0940E",
"-  c #C39F2F",
";  c #CEBF93",
":  c #3E376E",
">  c #BEA96B",
",  c #C6A648",
"<  c #CDA222",
"1  c #D0A00E",
"2  c #C89A0E",
"3  c #C7990E",
"4  c #C4970E",
"5  c #C1950E",
"6  c #C19A23",
"7  c #C7AF64",
"8  c #C9BFA2",
"9  c #CBC9C2",
"0  c #BEBEBF",
"q  c #B9B9BA",
"w  c #BBB6A7",
"e  c #C5BDA5",
"r  c #D0AD41",
"t  c #D6A40E",
"y  c #D4A30E",
"u  c #D1A00E",
"i  c #CA9B0F",
"p  c #C3960E",
"a  c #C09513",
"s  c #C2A95F",
"d  c #C3BDAA",
"f  c #CDB773",
"g  c #CCA83B",
"h  c #D6A617",
"j  c #D8A60E",
"k  c #D5A40E",
"l  c #D0A00F",
"z  c #CE9E0F",
"x  c #C7990F",
"c  c #C19F36",
"v  c #C2AF73",
"b  c #C3B99B",
"n  c #B5AD95",
"m  c #D1A729",
"M  c #D2A10E",
"N  c #C4A74D",
"B  c #B3AD9E",
"V  c #C5AA56",
"C  c #CEAC47",
"Z  c #D1B04B",
"A  c #D4AD36",
"S  c #D4A20E",
"D  c #C1940E",
"F  c #C3A138",
"G  c #C3B487",
"H  c #BDBDBE",
"J  c #B3B3B5",
"K  c #CBBA87",
"L  c #C2950E",
"P  c #C1A44B",
"I  c #C6C1B0",
"U  c #D6C593",
"Y  c #D7BB66",
"T  c #CB9C0F",
"R  c #C99A0F",
"E  c #C5980E",
"W  c #C09922",
"Q  c #BA9D44",
"!  c #B2A88C",
"~  c #C89A0F",
"^  c #B4A57A",
"/  c #D5D0BF",
"(  c #D7B550",
")  c #D1A10E",
"_  c #CD9E0F",
"`  c #D7BD71",
"'  c #D0D0D0",
"]  c #D7B650",
"[  c #C8BB93",
"{  c #D8AC29",
"}  c #D7A818",
"|  c #C3B68D",
" . c #948C91",
".. c #D6C798",
"X. c #D5B042",
"o. c #C6B88D",
"O. c #C7BFA5",
"+. c #C99B0F",
"@. c #C3B58D",
"#. c #C8C8C8",
"$. c #C0B79F",
"%. c #D5B34D",
"&. c #E3B017",
"*. c #BBB299",
"=. c #E0BD56",
"-. c #F9C529",
";. c #E1AD0F",
":. c #DEAA0F",
">. c #D9A70E",
",. c #CDC4AA",
"<. c #E4C159",
"1. c #E5B010",
"2. c #E0AD0F",
"3. c #DAA80E",
"4. c #D7A50E",
"5. c #CD9E0E",
"6. c gray78",
"7. c #C4BBA2",
"8. c #BBAE86",
"9. c #BA900F",
"0. c #B78D0F",
"q. c #B0A480",
"w. c #B6B1A3",
"e. c #C5B588",
"r. c #E7C04F",
"t. c #F8C325",
"y. c #E3AE10",
"u. c #DFAB0F",
"i. c #DAA70E",
"p. c #CC9D0E",
"a. c #BE920E",
"s. c #B68D0F",
"d. c #B28A10",
"f. c #AFA380",
"g. c #EACE7C",
"h. c #F3C846",
"j. c #F1BF27",
"k. c #F2BB14",
"l. c #BF930E",
"z. c #B48C10",
"x. c #B38B10",
"c. c #EECD6B",
"v. c #F8C630",
"b. c #F4BE1D",
"n. c #F1B910",
"m. c #BB910F",
"M. c #AFA58A",
"N. c #CBCBCB",
"B. c #E8CF85",
"V. c #FAC936",
"C. c #F4C32F",
"Z. c #E3B11B",
"A. c #C2C2C3",
"S. c #D9D4C4",
"D. c #E1D1A0",
"F. c #ECCA64",
"G. c #F7C429",
"H. c #F1BF29",
"J. c #EBB924",
"K. c #DFAD17",
"L. c #CB9C0E",
"P. c #BE930E",
"I. c #B88E0F",
"U. c #C9BC93",
"Y. c #F5C123",
"T. c #E0AC0F",
"R. c #B5AF9E",
"E. c #D3C088",
"W. c #DFC168",
"Q. c #EFBB1C",
"!. c #E9B30F",
"~. c #DEAA0E",
"^. c #D3A20E",
"/. c #BC910F",
"(. c #B49024",
"). c #B19645",
"_. c #AFA68C",
"`. c #C4B27B",
"'. c #E4AF0F",
"]. c #B89D4C",
"[. c #D4B24D",
"{. c #D0AF4A",
"}. c #D5AE36",
"|. c #B58C0F",
" X c #B38A10",
".X c #B69738",
"XX c #C6BDA2",
"oX c #D5CDB3",
"OX c #D7AE2F",
"+X c #B79C4B",
"@X c #D6C07D",
"#X c #D7B345",
"$X c #D8A919",
"%X c #B19233",
"&X c #B09E69",
"*X c #BEB59A",
"=X c #C1BCAE",
"-X c #D1CAB3",
";X c #D3B045",
":X c #B28C15",
">X c #B59125",
",X c #B89630",
"<X c #C2AB67",
"1X c #D0CAB9",
"2X c #6F6A8E",
"3X c #C1AD72",
"4X c #C7AA50",
"5X c #C89F24",
"6X c #BD920E",
"7X c #B48B10",
"8X c #BEA763",
"9X c #CDC4A9",
"0X c #D3D1CA",
"qX c #BDA047",
"wX c #B5942E",
"eX c #C1B38B",
"rX c #B7B7B9",
"tX c #443C73",
/* pixels */
"                                        . . . . . . . . . .                                         ",
"                                        . . . . . . . . . .                                         ",
"                              X X o O O . . . . . + + + + + X X X X X                               ",
"                              @ @ + . . . . . . . @ @ @ @ @ @ @ @ @ @                               ",
"                #             @ @ + . . . . . . . @ @ @ @ @ @ @ @ @ @                               ",
"                    . . . . . $ $ % @ @ @ @ @ @ @ @ @ @ @ @ @ @ @ @ @ $ $ $ $ $                     ",
"                    . . & * * * * * = = = = = = = = - ; @ @ @ @ @ @ @ $ $ $ $ $                     ",
"              : O O . . > , < 1 1 1 2 2 2 3 4 4 4 5 6 7 ; ; 8 9 % % % $ $ 0 q q O O :               ",
"              O . . . . w e r t t t y y y u i i i p a 6 - - s d $ $ $ $ $ q . . . . O               ",
"              O . . . . q $ f g h j j j j k l z * x 4 4 4 = c v b $ $ $ $ q . . . . O   #           ",
"          . . + @ @ $ $ q . . n m j j j j j j M * * * * * = = = N $ $ $ $ q . . . . q $ $           ",
"          . . + @ @ $ $ q . . B V C Z A j j j S 1 1 1 1 1 4 p D F G b $ $ q . . . . q $ $           ",
"          . . H % % q q J . . . . q $ K j j j j j j j j j * 2 L = = P q q J . . q q 0 $ $           ",
"          . . q $ $ . . . . . . . q $ I U Y j j j j j j j * T R E = W Q ! . . . $ $ $ $ $           ",
"          . . q $ $ . . . . . . . q $ $ @ U j j j j j j j * * * ~ = = = ^ . . . $ $ $ $ $           ",
"    O . . @ @ % $ $ $ $ $ $ $ $ $ % @ @ @ / U ( j j j j j y ) _ T 2 E = ; @ @ @ @ @ @ @ @ @ @ X     ",
"    O . . @ @ % $ $ $ $ $ $ $ $ $ % @ @ @ @ @ ` j j j j j j y z * * 2 = ; @ @ @ @ @ @ @ @ @ @ X     ",
"    O . . @ @ ' % % % % % % % % % ' @ @ @ @ @ @ @ ] j j j j j j y * * * 4 = [ % @ @ @ @ @ @ @ X     ",
"    O . . @ @ @ @ @ @ @ @ @ @ @ @ @ @ @ @ @ @ @ @ Y { } j j j j y * * * E L | $ @ @ @ @ @ @ @  .    ",
"    O . . @ @ @ @ @ @ @ @ @ @ @ @ @ @ @ @ @ @ @ @ / ..X.j j j j y * * * T i o.$ @ @ @ @ @ @ @ X     ",
". . . . . @ @ % $ $ $ $ % @ @ $ $ % @ @ . . q $ $ $ O.Z j j j j y * * * +.~ o.$ @ @ % $ $ @ @ @ @ @ ",
". . . . . @ @ % $ $ $ $ % @ @ $ $ % @ @ . . q $ $ $ O.Z j j j j y * * * 4 = @.$ @ @ % $ $ @ @ @ @ @ ",
". . J q q % % % % % $ $ #.% % % % ' @ @ . . q $ $ q $.%.&.j j j y * * * 4 = @.$ @ @ ' % % % % % % % ",
". . q $ $ $ $ % @ @ $ $ $ $ $ @ @ @ @ @ . . q $ $ . *.=.-.j j j y * * * 4 = @.$ @ @ @ @ @ $ $ $ $ $ ",
". . q $ $ $ $ % @ @ $ $ $ $ $ @ @ @ @ @ . . q $ $ . *.=.-.;.:.>.y * +.4 5 = @.$ @ @ @ @ @ $ $ $ $ $ ",
"@ @ @ @ @ @ @ + . . $ $ $ $ $ @ @ + . . @ @ % $ $ $ ,.<.-.1.2.3.y * 2 = = = @.$ @ @ @ @ @ $ $ $ $ $ ",
"@ @ @ @ @ @ @ + . . $ $ $ $ $ @ @ + . . @ @ % $ $ $ ,.<.-.1.2.3.4.y 5.= = = @.$ @ @ @ @ @ $ $ $ $ $ ",
"@ @ @ @ @ @ @ 6.q q q q 0 $ $ @ @ + . . @ @ % $ $ q 7.<.-.1.2.3.j j 1 = = = 8.q % % ' @ @ % % % % % ",
"@ @ @ @ @ @ @ % $ $ . . q $ $ @ @ + . . @ @ % $ $ . *.<.-.1.2.3.j j 1 = 9.0.q.. $ $ % @ @ @ @ @ @ @ ",
"@ @ @ @ @ @ @ % $ $ . . q $ $ @ @ + . . @ @ % $ $ w.e.r.t.y.u.i.4.y p.a.s.d.f.. $ $ % @ @ @ @ @ @ @ ",
"    O . . @ @ @ @ @ @ @ @ @ @ @ @ + . . @ @ @ @ @ g.h.j.k.3.>.j ) 4 l.z.x.d.f.. $ $ % @ @ @ @ X   # ",
"    O . . @ @ @ @ @ @ @ @ @ @ @ @ + . . @ @ @ @ @ c.v.b.n.j j j 1 = m.d.d.d.M.. $ $ % @ @ @ @ X     ",
"    O . . @ @ @ @ @ + + 6.% % @ @ N.+ + @ @ @ B.V.V.C.Z.j j 1 4 = = m.d.| A.q q q q 6.@ @ @ @ X     ",
"    O . . @ @ @ @ @ . . q $ $ @ @ @ @ @ @ S.D.F.G.H.J.K.j 1 L.p P.m.I.d.U.% $ $ . . + @ @ @ @ X     ",
"    O . . @ @ @ @ @ . . q $ $ @ @ @ @ @ @ D.V.Y.n.T.j j j = = = m.d.d.d.U.% $ $ . . + @ @ @ @ X     ",
"          @ @ @ @ @ $ $ % @ @ @ @ + . R.E.W.G.Q.!.~.4.^.1 = P./.I.d.(.)._.. . . . . q $ $           ",
"          @ @ @ @ @ $ $ % @ @ @ @ + . `.n.n.n.'.j j y 2 = = m.z.d.d.].. . . . . . . q $ $           ",
"          + + N.@ @ % % ' @ @ / Y [.{.}.T.T.T.y 2 2 3 p = 0.|. X.X| XXq q J . . . . q $ $           ",
"          . . + @ @ @ @ @ @ @ oXOXj j j j j j p.= = = = = d.d.d.+X@ @ $ $ q . . . . q $ $           ",
"          . . + @ @ @ @ @ @ @X#X$Xj j ^.2 2 2 4 = 9.0.0.0.d.%X&X*X@ @ $ $ q . . . . q $ $           ",
"              O . . . . =X-X;Xy y y y 5.= l.a.a.a.s.:X>X,X,X<X1X@ @ @ @ @ + . . $ $ 2X              ",
"              O . . . . 3X4X5X2 2 2 2 E = 6X0.0.0.7X(.8XU.U.9X0X@ @ @ @ @ + . . $ $ 2X              ",
"    #         : O O . . qX= = = = = = = = m.d.d.d.d.wXeX% % @ @ N.+ + + + rX. . 2X2XtX          #   ",
"                    . . . . . @ @ @ @ @ @ @ + . . $ $ $ $ $ @ @ + . . . . . . .                     ",
"                    . . . . . @ @ @ @ @ @ @ + . . $ $ $ $ $ @ @ + . . . . . . .                     ",
"                              . . . . . @ @ @ @ @ @ @ % $ $ . . . . .                     #         ",
"                              . . . . . @ @ @ @ @ @ @ % $ $ . . . . .     #                         ",
"                              O O O O O @ @ @ @ @ @ @ 6.q q O O O O O                               ",
"                                        @ @ @ @ @ @ @ + . .                                         ",
"                                        @ @ @ @ @ @ @ + . .                                         "
};
