/* XPM */
static char *_42d83c09b6b401ca5852ad4f07ace36VPQwSyrEj6J1U2fC[] = {
/* columns rows colors chars-per-pixel */
"50 50 55 1 ",
"  c #190F58",
". c #D5D5D5",
"X c white",
"o c #484177",
"O c #777297",
"+ c #DFDFDF",
"@ c #EAEAEA",
"# c #8C87AC",
"$ c #534B82",
"% c #52434D",
"& c #AEAEB0",
"* c #C2C2C3",
"= c #E2E2E2",
"- c gray77",
"; c #5A557F",
": c #89879A",
"> c #CFCFD0",
", c #B9B9BA",
"< c #DCDCDD",
"1 c #C1C1C2",
"2 c #C7C7C8",
"3 c #BDBDBE",
"4 c gray80",
"5 c #C4C4C5",
"6 c #BEBEBF",
"7 c #A6A4B6",
"8 c #D0D0D0",
"9 c gray82",
"0 c #A9A9A9",
"q c gray50",
"w c #6A6A6A",
"e c black",
"r c #B5B1B3",
"t c #CDCDCD",
"y c #B3B3B5",
"u c gainsboro",
"i c #F4F4F4",
"p c gray86",
"a c gray78",
"s c #E6E6E6",
"d c #D7D7D8",
"f c #CBCBCB",
"g c gray75",
"h c #B4B4B4",
"j c #C6C6C8",
"k c #9A97A9",
"l c #B7B7B9",
"z c #DEDEDF",
"x c gray81",
"c c #645E87",
"v c #E0E0E1",
"b c gray46",
"n c #AAAAAA",
"m c #989898",
"M c #606061",
/* pixels */
"               .....XXXXXXXXXXXXXXX               ",
"               .....XXXXXXXXXXXXXXX               ",
"            oOO..+@@XXXXXXXXXXXXXXX##$            ",
"            O....@XXXXXXXXXXXXXXXXXXX#            ",
"        %   O....@XXXXXXXXXXXXXXXXXXX#            ",
"          &&*..XXXXXXXXXXXXXXXXXXXXXX=--          ",
"          &&*..XXXXXXXXXXXXXXXXXXXXXX=--          ",
"       ;::&&>@@XXXXXXXXXXXXXXXXXXXXXX+,,::;       ",
"       :&&&&<XXXXXXXXXXXXXXXXXXXXXXXX<&&&&:       ",
"       :&&&&<XXXXXXXXXXXXXXXXXXXXXXXX<&&&&: %     ",
"     &&1..--2..XXXXXXXXXXXXXXXXXXXX..2&&&&,--     ",
"     &&1..--2..XXXXXXXXXXXXXXXXXXXX..2&&&&,--     ",
"     &&344,,5..XXXXXXXXXXXXXXXXXXXX..5&&,,6--     ",
"     &&,--&&*..XXXXXXXXXXXXXXXXXXXX..*&&-----     ",
"     &&,--&&*..XXXXXXXXXXXXXXXXXXXX..*&&-----     ",
"  :&&..4-------..@XXXXXXXXXXXXXX@..............7  ",
"  :&&..4-------..@XXXXXXXXXXXXXX@..............7  ",
"  :&&..84444444990qqqqqqqqqqqqqq099..844.......7  ",
"  :&&............weeeeeeeeeeeeeew....4--.......r  ",
"  :&&............weeeeeeeeeeeeeew....4--.......7  ",
"&&&&&..4----9..XXXXX..........XXXXX..t--..4--.....",
"&&&&&..4----9..XXXXX..........XXXXX..t--..4--.....",
"&&y,,44444ttu@@XXi@@..........@@iXX@@ptt..84444444",
"&&,----4....@XXXX@..............@XXXX@.......-----",
"&&,----4....@XXXX@..............@XXXX@.......-----",
".......1&&..@XXXX@..............@XXXX@.......-----",
".......1&&..@XXXX@..............@XXXX@.......-----",
".......a,,..@XXXX@..............@XXXX@..448..44444",
".......4--..@XXXX@..............@XXXX@..--4.......",
".......4--..@XXXX@..............@XXXX@..--4.......",
"  :&&.......@XXXX@..............@XXXX@..--4....7 %",
"  :&&.......@XXXX@..............@XXXX@..--4....7  ",
"  :&&.......@XXXXi@@..........@@iXXXX@..,,a....7  ",
"  :&&.......@XXXXXXX..........XXXXXXX@..&&1....7  ",
"  :&&.......@XXXXXXX..........XXXXXXX@..&&1....7  ",
"     .....--sXXXXXXXXXXXXXXXXXXXXXXXXd&&&&,--     ",
"     .....--sXXXXXXXXXXXXXXXXXXXXXXXXd&&&&,--     ",
"     11f..44u@@@@iXXXXgqqqqh@@XXXXX<<j&&&&,--     ",
"     &&1.........@XXXXqeeeew..XXXXX--,&&&&,--     ",
"     &&1.........@XXXXqeeeew..XXXXX--,&&&&,--     ",
"       :&&&&1....@XXXX<&&--9..XXXXX..1&&--k       ",
"       :&&&&1....@XXXX<&&--9..XXXXX..1&&--k       ",
"  %    ;::&&l11..@XXXXz&&--x..XXXXX11l&&kkc     % ",
"          &&&&&..@XXXXv&&--t..XXXXX&&&&&          ",
"          &&&&&..@XXXXv&&--t..XXXXX&&&&&          ",
"               ..@XXXX@....9..XXXXX          %    ",
"               ..@XXXX@....9..XXXXX  %            ",
"               wwbqqqqn....mwwqqqqq               ",
"               eeeeeeew....Meeeeeee               ",
"               eeeeeeew....Meeeeeee               "
};
