/* XPM */
static char *pl_5[] = {
/* columns rows colors chars-per-pixel */
"32 32 26 1 ",
"  c black",
". c #2B2B2B",
"X c #313131",
"o c gray20",
"O c #3B3B3B",
"+ c #3D3D3D",
"@ c #555555",
"# c #636363",
"$ c gray40",
"% c #707070",
"& c #868686",
"* c #D5D5D5",
"= c #DCDCDC",
"- c #DDDDDD",
"; c #E2E2E2",
": c #E4E4E4",
"> c #E6E6E6",
", c #EBEBEB",
"< c #EEEEEE",
"1 c #F0F0F0",
"2 c #F5F5F5",
"3 c #F7F7F7",
"4 c #FCFCFC",
"5 c #FDFDFD",
"6 c white",
"7 c None",
/* pixels */
"7777777777**-6666666667777777777",
"777777777**;,6666666666777777777",
"77777777***366666666666677777777",
"77777777*;3566666666666677777777",
"77777777-,6666666666666677777777",
"77777777666666666666666677777777",
"77777777>16666666666661>77777777",
"77777777*>666666666666>*77777777",
"77777777*>666666666666>*77777777",
"77777777*;<4666666664<;*77777777",
"7777777777*3666666663*7777777777",
"77777777777OooooooooO77777777777",
"77777777777+X......X+77777777777",
"77777777*>663******366>*77777777",
"7777777*<26,;******;,62<*7777777",
"777777**666-********-666**777777",
"777777**666-********-666**777777",
"777777**666-********-666**777777",
"777777**666-********-666**777777",
"777777**666-********-666**777777",
"777777**666:=******=:666**777777",
"777777**66663******36666**777777",
"7777777766664<<<<<<4666677777777",
"77777777666666666666666677777777",
"7777777777*366$  @*3667777777777",
"7777777777*366&  %*3667777777777",
"7777777777*3667777*3667777777777",
"7777777777*3667777*3667777777777",
"7777777777*3667777*3667777777777",
"7777777777*3667777*3667777777777",
"7777777777@#$$7777@#$$7777777777",
"7777777777    7777    7777777777"
};
