/* XPM */
static char *pl_6[] = {
/* columns rows colors chars-per-pixel */
"32 32 44 1 ",
"  c black",
". c #292929",
"X c #2B2B2B",
"o c #303030",
"O c gray20",
"+ c #3B3B3B",
"@ c #555555",
"# c #595959",
"$ c #5C5C5C",
"% c #5A5B65",
"& c #636363",
"* c gray40",
"= c #61626B",
"- c #676871",
"; c #7A7A7A",
": c #7B7C84",
"> c #8F8F8F",
", c gray60",
"< c #9C9DA3",
"1 c #A3A3A3",
"2 c #AAAAAA",
"3 c #A9A9AF",
"4 c #ADADAD",
"5 c #BDBDC1",
"6 c #C3C3C7",
"7 c gray80",
"8 c #CDCED0",
"9 c #D5D5D5",
"0 c #DDDDDD",
"q c #DEDEE0",
"w c #E2E2E2",
"e c #E4E4E4",
"r c #E5E5E6",
"t c #E6E6E6",
"y c #EBEBEB",
"u c #EEEEEE",
"i c #F5F5F5",
"p c #F7F7F7",
"a c #FAFAFA",
"s c #FBFBFB",
"d c #FCFCFC",
"f c #FDFDFD",
"g c white",
"h c None",
/* pixels */
"hhhhhhhhhhhggggggu999hhhhhhhhhhh",
"hhhhhhhhhhh6555558ttehhhhhhhhhhh",
"hhhhhhhhhhg:%%%%%<ggp9hhhhhhhhhh",
"hhhhhhhhhh:=%%%%%-:rfpsghhhhhhhh",
"hhhhhhhhhh%%%%%%%%%qggaphhhhhhhh",
"hhhhhhhhhh%%%%%%%%%qggt9hhhhhhhh",
"hhhhhhhhhh%%%%%%%%%qggt9hhhhhhhh",
"hhhhhhhhhh%%%%%%%%%qggt9hhhhhhhh",
"hhhhhhhhhhg:%%%%%<ggp9hhhhhhhhhh",
"hhhhhhhhhhg3<<<<<5uuy9hhhhhhhhhh",
"hhhhhhhhhhhggggggu999hhhhhhhhhhh",
"hhhhhhhhhhhhhOOOOoXXXhhhhhhhhhhh",
"hhhhhhhhhhhhhOOOOOOO+hhhhhhhhhhh",
"hhhhhhhhhhhgggggggggp9hhhhhhhhhh",
"hhhhhhhhhhggatigggggduw9hhhhhhhh",
"hhhhhhhhhhggp9ugggggggt9hhhhhhhh",
"hhhhhhhhhhg02 ,ggggOOgt9hhhhhhhh",
"hhhhhhhhhhg02 ,ggggOOgt9hhhhhhhh",
"hhhhhhhhhhg02 ,ggggOOgt9hhhhhhhh",
"hhhhhhhhhhg02 ,ggggOOgt9hhhhhhhh",
"hhhhhhhhhhg02 ,ggggOOgt9hhhhhhhh",
"hhhhhhhhhhg02 ,ggggOOgt9hhhhhhhh",
"hhhhhhhhhh*#&,;**1g4>*$@hhhhhhhh",
"hhhhhhhhhh  Og*  *gg7   hhhhhhhh",
"hhhhhhhhhhhhhggg *ggghhhhhhhhhhh",
"hhhhhhhhhhhhhggg *ggghhhhhhhhhhh",
"hhhhhhhhhhhhhggg *ggghhhhhhhhhhh",
"hhhhhhhhhhhhhggg *ggghhhhhhhhhhh",
"hhhhhhhhhhhhhggg *ggghhhhhhhhhhh",
"hhhhhhhhhhhhhggg *ggghhhhhhhhhhh",
"hhhhhhhhhhhhh*** .***hhhhhhhhhhh",
"hhhhhhhhhhhhh        hhhhhhhhhhh"
};
