/* XPM */
static char *Astronaut_left[] = {
/* columns rows colors chars-per-pixel */
"100 100 5 1 ",
"  c None",
". c black",
"X c #5A5B65",
"o c #D5D5D5",
"O c white",
/* pixels */
"                                   OOOOOOOOOOOOOOOOOOOOoooooooooo                                   ",
"                                   OOOOOOOOOOOOOOOOOOOOoooooooooo                                   ",
"                                   OOOOOOOOOOOOOOOOOOOOoooooooooo                                   ",
"                                   OOOOOOOOOOOOOOOOOOOOoooooooooo                                   ",
"                                   OOOOOOOOOOOOOOOOOOOOoooooooooo                                   ",
"                              OOOOOXXXXXXXXXXXXXXXXXXXXOOOOOOOOOOooooo                              ",
"                              OOOOOXXXXXXXXXXXXXXXXXXXXOOOOOOOOOOooooo                              ",
"                              OOOOOXXXXXXXXXXXXXXXXXXXXOOOOOOOOOOooooo                              ",
"                              OOOOOXXXXXXXXXXXXXXXXXXXXOOOOOOOOOOooooo                              ",
"                              OOOOOXXXXXXXXXXXXXXXXXXXXOOOOOOOOOOooooo                              ",
"                              XXXXXXXXXXXXXXXXXXXXXXXXXXXXXXOOOOOOOOOOOOOOO                         ",
"                              XXXXXXXXXXXXXXXXXXXXXXXXXXXXXXOOOOOOOOOOOOOOO                         ",
"                              XXXXXXXXXXXXXXXXXXXXXXXXXXXXXXOOOOOOOOOOOOOOO                         ",
"                              XXXXXXXXXXXXXXXXXXXXXXXXXXXXXXOOOOOOOOOOOOOOO                         ",
"                              XXXXXXXXXXXXXXXXXXXXXXXXXXXXXXOOOOOOOOOOOOOOO                         ",
"                              XXXXXXXXXXXXXXXXXXXXXXXXXXXXXXOOOOOOOOOOooooo                         ",
"                              XXXXXXXXXXXXXXXXXXXXXXXXXXXXXXOOOOOOOOOOooooo                         ",
"                              XXXXXXXXXXXXXXXXXXXXXXXXXXXXXXOOOOOOOOOOooooo                         ",
"                              XXXXXXXXXXXXXXXXXXXXXXXXXXXXXXOOOOOOOOOOooooo                         ",
"                              XXXXXXXXXXXXXXXXXXXXXXXXXXXXXXOOOOOOOOOOooooo                         ",
"                              XXXXXXXXXXXXXXXXXXXXXXXXXXXXXXOOOOOOOOOOooooo                         ",
"                              XXXXXXXXXXXXXXXXXXXXXXXXXXXXXXOOOOOOOOOOooooo                         ",
"                              XXXXXXXXXXXXXXXXXXXXXXXXXXXXXXOOOOOOOOOOooooo                         ",
"                              XXXXXXXXXXXXXXXXXXXXXXXXXXXXXXOOOOOOOOOOooooo                         ",
"                              XXXXXXXXXXXXXXXXXXXXXXXXXXXXXXOOOOOOOOOOooooo                         ",
"                              OOOOOXXXXXXXXXXXXXXXXXXXXOOOOOOOOOOooooo                              ",
"                              OOOOOXXXXXXXXXXXXXXXXXXXXOOOOOOOOOOooooo                              ",
"                              OOOOOXXXXXXXXXXXXXXXXXXXXOOOOOOOOOOooooo                              ",
"                              OOOOOXXXXXXXXXXXXXXXXXXXXOOOOOOOOOOooooo                              ",
"                              OOOOOXXXXXXXXXXXXXXXXXXXXOOOOOOOOOOooooo                              ",
"                                   OOOOOOOOOOOOOOOOOOOOoooooooooo                                   ",
"                                   OOOOOOOOOOOOOOOOOOOOoooooooooo                                   ",
"                                   OOOOOOOOOOOOOOOOOOOOoooooooooo                                   ",
"                                   OOOOOOOOOOOOOOOOOOOOoooooooooo                                   ",
"                                   OOOOOOOOOOOOOOOOOOOOoooooooooo                                   ",
"                                        .........................                                   ",
"                                        .........................                                   ",
"                                        .........................                                   ",
"                                        .........................                                   ",
"                                        .........................                                   ",
"                                   OOOOOOOOOOOOOOOOOOOOOOOOOOOOOOooooo                              ",
"                                   OOOOOOOOOOOOOOOOOOOOOOOOOOOOOOooooo                              ",
"                                   OOOOOOOOOOOOOOOOOOOOOOOOOOOOOOooooo                              ",
"                                   OOOOOOOOOOOOOOOOOOOOOOOOOOOOOOooooo                              ",
"                                   OOOOOOOOOOOOOOOOOOOOOOOOOOOOOOooooo                              ",
"                              OOOOOOOOOOoooooOOOOOOOOOOOOOOOOOOOOOOOOOooooo                         ",
"                              OOOOOOOOOOoooooOOOOOOOOOOOOOOOOOOOOOOOOOooooo                         ",
"                              OOOOOOOOOOoooooOOOOOOOOOOOOOOOOOOOOOOOOOooooo                         ",
"                              OOOOOOOOOOoooooOOOOOOOOOOOOOOOOOOOOOOOOOooooo                         ",
"                              OOOOOOOOOOoooooOOOOOOOOOOOOOOOOOOOOOOOOOooooo                         ",
"                              OOOOOooooo.....OOOOOOOOOOOOOOO.....OOOOOooooo                         ",
"                              OOOOOooooo.....OOOOOOOOOOOOOOO.....OOOOOooooo                         ",
"                              OOOOOooooo.....OOOOOOOOOOOOOOO.....OOOOOooooo                         ",
"                              OOOOOooooo.....OOOOOOOOOOOOOOO.....OOOOOooooo                         ",
"                              OOOOOooooo.....OOOOOOOOOOOOOOO.....OOOOOooooo                         ",
"                              OOOOOooooo.....OOOOOOOOOOOOOOO.....OOOOOooooo                         ",
"                              OOOOOooooo.....OOOOOOOOOOOOOOO.....OOOOOooooo                         ",
"                              OOOOOooooo.....OOOOOOOOOOOOOOO.....OOOOOooooo                         ",
"                              OOOOOooooo.....OOOOOOOOOOOOOOO.....OOOOOooooo                         ",
"                              OOOOOooooo.....OOOOOOOOOOOOOOO.....OOOOOooooo                         ",
"                              OOOOOooooo.....OOOOOOOOOOOOOOO.....OOOOOooooo                         ",
"                              OOOOOooooo.....OOOOOOOOOOOOOOO.....OOOOOooooo                         ",
"                              OOOOOooooo.....OOOOOOOOOOOOOOO.....OOOOOooooo                         ",
"                              OOOOOooooo.....OOOOOOOOOOOOOOO.....OOOOOooooo                         ",
"                              OOOOOooooo.....OOOOOOOOOOOOOOO.....OOOOOooooo                         ",
"                              OOOOOooooo.....OOOOOOOOOOOOOOO.....OOOOOooooo                         ",
"                              OOOOOooooo.....OOOOOOOOOOOOOOO.....OOOOOooooo                         ",
"                              OOOOOooooo.....OOOOOOOOOOOOOOO.....OOOOOooooo                         ",
"                              OOOOOooooo.....OOOOOOOOOOOOOOO.....OOOOOooooo                         ",
"                              OOOOOooooo.....OOOOOOOOOOOOOOO.....OOOOOooooo                         ",
"                              ..........OOOOO..........OOOOOOOOOO..........                         ",
"                              ..........OOOOO..........OOOOOOOOOO..........                         ",
"                              ..........OOOOO..........OOOOOOOOOO..........                         ",
"                              ..........OOOOO..........OOOOOOOOOO..........                         ",
"                              ..........OOOOO..........OOOOOOOOOO..........                         ",
"                                        OOOOOOOOOO.....OOOOOOOOOO                                   ",
"                                        OOOOOOOOOO.....OOOOOOOOOO                                   ",
"                                        OOOOOOOOOO.....OOOOOOOOOO                                   ",
"                                        OOOOOOOOOO.....OOOOOOOOOO                                   ",
"                                        OOOOOOOOOO.....OOOOOOOOOO                                   ",
"                                        OOOOOOOOOO.....OOOOOOOOOO                                   ",
"                                        OOOOOOOOOO.....OOOOOOOOOO                                   ",
"                                        OOOOOOOOOO.....OOOOOOOOOO                                   ",
"                                        OOOOOOOOOO.....OOOOOOOOOO                                   ",
"                                        OOOOOOOOOO.....OOOOOOOOOO                                   ",
"                                        OOOOOOOOOO.....OOOOOOOOOO                                   ",
"                                        OOOOOOOOOO.....OOOOOOOOOO                                   ",
"                                        OOOOOOOOOO.....OOOOOOOOOO                                   ",
"                                        OOOOOOOOOO.....OOOOOOOOOO                                   ",
"                                        OOOOOOOOOO.....OOOOOOOOOO                                   ",
"                                        OOOOOOOOOO.....OOOOOOOOOO                                   ",
"                                        OOOOOOOOOO.....OOOOOOOOOO                                   ",
"                                        OOOOOOOOOO.....OOOOOOOOOO                                   ",
"                                        OOOOOOOOOO.....OOOOOOOOOO                                   ",
"                                        OOOOOOOOOO.....OOOOOOOOOO                                   ",
"                                        .........................                                   ",
"                                        .........................                                   ",
"                                        .........................                                   ",
"                                        .........................                                   ",
"                                        .........................                                   "
};
