/* XPM */
static char *fb385407b9dd4d45d3b64ae8575bd03fUNHpSE7tQtEjW3Ge[] = {
/* columns rows colors chars-per-pixel */
"50 50 64 1 ",
"  c #190F58",
". c #8C87AC",
"X c white",
"o c #EAEAEA",
"O c #D5D5D5",
"+ c #777297",
"@ c #BBB9CB",
"# c #B2B0BC",
"$ c #ACADB2",
"% c #CBCBCE",
"& c #C8C7D0",
"* c #A6A4B6",
"= c #5A5B65",
"- c #52434D",
"; c #AEAEB0",
": c #E2E2E2",
"> c gray77",
", c #3E376E",
"< c #645F84",
"1 c #B3B3B5",
"2 c #B9B9BA",
"3 c #D4D4D5",
"4 c #C7C7C8",
"5 c #C1C1C2",
"6 c #BDBDBE",
"7 c gray80",
"8 c #83848B",
"9 c #F4F4F4",
"0 c #BCBCBD",
"q c #BEBEBF",
"w c #E6E6E6",
"e c gray82",
"r c #D0D0D0",
"t c gainsboro",
"y c gray50",
"u c gray46",
"i c #6A6A6A",
"p c #9D9D9D",
"a c black",
"s c #948C91",
"d c #C8C8C8",
"f c #F3F3F3",
"g c #CDCDCD",
"h c gray78",
"j c #CECECE",
"k c #CBCBCC",
"l c #575758",
"z c #CBCBCB",
"x c #656565",
"c c #606061",
"v c gray75",
"b c gray69",
"n c gray40",
"m c #5C5C5D",
"M c #868688",
"N c #E0E0E1",
"B c #6F6A8E",
"V c #B7B7B9",
"C c gray90",
"Z c #443C73",
"A c #D7D7D8",
"S c #3F3F3F",
"D c #726F81",
"F c #0C072C",
/* pixels */
"                 .XXXXXXXXXoOOOO+                 ",
"                 .XXXXXXXXXoOOOO+                 ",
"               @@#$$$$$$$$$%oooo&**               ",
"               XX$=========$XXXXoOO               ",
"        -      XX$=========$XXXXoOO               ",
"          ;;;;;===============XXXXXXX:>>          ",
"          ;;;;;===============XXXXXXX:>>          ",
"       ,<<;;122===============XXXXXoo322<<,       ",
"       <;;;;2>>===============XXXXXOO4;;;;<       ",
"       <;;;;2>>===============XXXXXOO4;;;;< -     ",
"     ;;5OO>>2;;===============XXXXXOO4;;;;2>>     ",
"     ;;5OO>>2;;===============XXXXXOO4;;;;2>>     ",
"     ;;677221;;$$8=========8$$XX9oo440;;22q>>     ",
"     ;;2>>;;;;;XX$=========$XXXXoOO;;;;;>>>>>     ",
"     ;;2>>;;;;;XX$=========$XXXXoOO;;;;;>>>>>     ",
"  <;;OO7>>>>>>>>>wXXXXXXXXXoOOOOe>>OOOOOOOOOOOO+  ",
"  <;;OO7>>>>>>>>>wXXXXXXXXXoOOOOe>>OOOOOOOOOOOO+  ",
"  <;;OOr777777777tooyyyyyyyuiiiip77OOr77OOOOOOO+  ",
"  <;;OOOOOOOOOOOOOOOaaaaaaaaaaaaiOOOO7>>OOOOOOOs  ",
"  <;;OOOOOOOOOOOOOOOaaaaaaaaaaaaiOOOO7>>OOOOOOO+  ",
";;;;;OO7>>>>7OO>>wXXXXXXXXXXXXXXoOO>>>>>OO7>>OOOOO",
";;;;;OO7>>>>7OO>>wXXXXXXXXXXXXXXoOO>>>>>OO7>>OOOOO",
";;12277777>>d77wwfXXoo9XXXXXXXXX9ooggd>>OOr7777777",
";;2>>>>7OO>>>>>XXXXXOOoXXXXXXXXXXXXOOg>>OOOOO>>>>>",
";;2>>>>7OO>>>>>XXXXXOOoXXXXXXXXXXXXOOg>>OOOOO>>>>>",
"OOOOOOO5;;>>>>>XXoOOaayXXXXXXXaayXXOOe>>OOOOO>>>>>",
"OOOOOOO5;;>>>>>XXoOOaayXXXXXXXaayXXOOe>>OOOOO>>>>>",
"OOOOOOOh2222q>>XXoOOaayXXXXXXXaayXXOOj2277rOO77777",
"OOOOOOO7>>;;2>>XXoOOaayXXXXXXXaayXXOOk;;>>7OOOOOOO",
"OOOOOOO7>>;;2>>XXoOOaayXXXXXXXaayXXOOk;;>>7OOOOOOO",
"  <;;OOOOOOOOOOXXoOOaayXXXXXXXaayXXOO4;;>>7OOOO+ -",
"  <;;OOOOOOOOOOXXoOOaayXXXXXXXaayXXOO4;;>>7OOOO+  ",
"  <;;OOOOO55h77XXoOOaayXXXXXXXaayXXOO72222hOOOO+  ",
"  <;;OOOOO;;2>>XXoOOaayXXXXXXXaayXXOOe>>;;5OOOO+  ",
"  <;;OOOOO;;2>>XXoOOaayXXXXXXXaayXXOOe>>;;5OOOO+  ",
"     OOOOO>>7OOaaaaaXXyaaaayXXXXyaaaal;;;;2>>     ",
"     OOOOO>>7OOaaaaaXXyaaaayXXXXyaaaal;;;;2>>     ",
"     55zOO77rOOiixccXXvyyaayXXXXbnnmmM;;;;2>>     ",
"     ;;5OOOOOOOOOOOOXXXXXaayXXXXNOO>>2;;;;2>>     ",
"     ;;5OOOOOOOOOOOOXXXXXaayXXXXNOO>>2;;;;2>>     ",
"       <;;;;5OOOOOOOXXXXXaayXXXXoOOOO5;;>>B       ",
"       <;;;;5OOOOOOOXXXXXaayXXXXoOOOO5;;>>B       ",
"  -    ,<<;;V55OOOOOXXXXXaayXXXXC5555V;;BBZ     - ",
"          ;;;;;OOOOOXXXXXaayXXXXN;;;;;;;          ",
"          ;;;;;OOOOOXXXXXaayXXXXN;;;;;;;          ",
"               ;;;;;XXXXXaayXXXXA;;          -    ",
"               ;;;;;XXXXXaayXXXXA;;  -            ",
"               <<<<<yyyyyaaSyyyyD<<               ",
"                    aaaaaaaaaaaaF                 ",
"                    aaaaaaaaaaaaF                 "
};
