/* XPM */
static char *_1e599c7b26041acd8219faf43f2f19ceYATcUn2bQx8OgXb[] = {
/* columns rows colors chars-per-pixel */
"50 50 59 1 ",
"  c #190F58",
". c #777297",
"X c #D5D5D5",
"o c #EAEAEA",
"O c white",
"+ c #8C87AC",
"@ c #A6A4B6",
"# c #C6C5CE",
"$ c #CBCBCE",
"% c #ACADB2",
"& c #B4B3BE",
"* c #BBB9CB",
"= c #5A5B65",
"- c #52434D",
"; c #AEAEB0",
": c #D7D7D8",
"> c gray77",
", c #3E376E",
"< c #645F84",
"1 c #CFCFD0",
"2 c #BEBEBF",
"3 c #B9B9BA",
"4 c #C7C7C8",
"5 c #C1C1C2",
"6 c #BDBDBE",
"7 c gray80",
"8 c #BCBCBD",
"9 c #C2C2C3",
"0 c #F4F4F4",
"q c #83848B",
"w c #B3B3B5",
"e c gray82",
"r c #E6E6E6",
"t c #D0D0D0",
"y c #9D9D9D",
"u c #6A6A6A",
"i c gray46",
"p c gray50",
"a c gainsboro",
"s c black",
"d c #948C91",
"f c #CBCBCB",
"g c gray95",
"h c #CDCDCD",
"j c gray78",
"k c #CACACA",
"l c #CECECE",
"z c gray40",
"x c gray61",
"c c #B2B2B2",
"v c gray75",
"b c #5C5C5D",
"n c gray38",
"m c #6F6A8E",
"M c #B7B7B9",
"N c #443C73",
"B c #726F81",
"V c #3F3F3F",
"C c #0C072C",
/* pixels */
"                 .XXXXoOOOOOOOOO+                 ",
"                 .XXXXoOOOOOOOOO+                 ",
"               @@#oooo$%%%%%%%%%&**               ",
"               XXoOOOO%=========%OO               ",
"        -      XXoOOOO%=========%OO               ",
"          ;;:OOOOOOO===============>>>>>          ",
"          ;;:OOOOOOO===============>>>>>          ",
"       ,<<;;1ooOOOOO===============>>233<<,       ",
"       <;;;;4XXOOOOO===============>>3;;;;<       ",
"       <;;;;4XXOOOOO===============>>3;;;;< -     ",
"     ;;5XX>>4XXOOOOO===============>>3;;;;3>>     ",
"     ;;5XX>>4XXOOOOO===============>>3;;;;3>>     ",
"     ;;67733899oo0OO%%q=========q%%33w;;332>>     ",
"     ;;3>>;;;;;XXoOOOO%=========%OO;;;;;>>>>>     ",
"     ;;3>>;;;;;XXoOOOO%=========%OO;;;;;>>>>>     ",
"  <;;XX7>>>>>>>>>eXXXXoOOOOOOOOOr>>XXXXXXXXXXXX.  ",
"  <;;XX7>>>>>>>>>eXXXXoOOOOOOOOOr>>XXXXXXXXXXXX.  ",
"  <;;XXt777777777yuuuuipppppppooa77XXt77XXXXXXX.  ",
"  <;;XXXXXXXXXXXXussssssssssssXXXXXXX7>>XXXXXXXd  ",
"  <;;XXXXXXXXXXXXussssssssssssXXXXXXX7>>XXXXXXX.  ",
";;;;;XX7>>>>7XXXXoOOOOOOOOOOOOOOrXX>>>>>XX7>>XXXXX",
";;;;;XX7>>>>7XXXXoOOOOOOOOOOOOOOrXX>>>>>XX7>>XXXXX",
";;w3377777>>feeoo0OOOOOOOOO0ooOOgoo>>>>>XXt7777777",
";;3>>>>7XX>>hXXOOOOOOOOOOOOoXXOOOOO>>>>>XXXXX>>>>>",
";;3>>>>7XX>>hXXOOOOOOOOOOOOoXXOOOOO>>>>>XXXXX>>>>>",
"XXXXXXX5;;>>hXXOOpssOOOOOOOpssXXoOOXX7>>XXXXX>>>>>",
"XXXXXXX5;;>>hXXOOpssOOOOOOOpssXXoOOXX7>>XXXXX>>>>>",
"XXXXXXXj3333kXXOOpssOOOOOOOpssXXoOOXXj3377tXX77777",
"XXXXXXX7>>;;4XXOOpssOOOOOOOpssXXoOOXX5;;>>7XXXXXXX",
"XXXXXXX7>>;;4XXOOpssOOOOOOOpssXXoOOXX5;;>>7XXXXXXX",
"  <;;XXXXXXXXXXOOpssOOOOOOOpssXXoOO>>3;;>>7XXXX. -",
"  <;;XXXXXXXXXXOOpssOOOOOOOpssXXoOO>>3;;>>7XXXX.  ",
"  <;;XXXXX55lXXOOpssOOOOOOOpssXXoOO7793333jXXXX.  ",
"  <;;XXXXX;;4XXOOpssOOOOOOOpssXXoOOXX7>>;;5XXXX.  ",
"  <;;XXXXX;;4XXOOpssOOOOOOOpssXXoOOXX7>>;;5XXXX.  ",
"     XXXXX>>zsssspOOOOpsssspOOsssss;;;;;;;3>>     ",
"     XXXXX>>zsssspOOOOpsssspOOsssss;;;;;;;3>>     ",
"     55fXX77xuuuucOOOOpssppvOObbnzz33w;;;;3>>     ",
"     ;;5XXXXXXXXXoOOOOpssOOOOO;;5XX>>3;;;;3>>     ",
"     ;;5XXXXXXXXXoOOOOpssOOOOO;;5XX>>3;;;;3>>     ",
"       <;;;;5XXXXoOOOOpssOOOOOXXXXXXX5;;>>m       ",
"       <;;;;5XXXXoOOOOpssOOOOOXXXXXXX5;;>>m       ",
"  -    ,<<;;M55XXoOOOOpssOOOOOXXf5555M;;mmN     - ",
"          ;;;;;XXoOOOOpssOOOOOXX5;;;;;;;          ",
"          ;;;;;XXoOOOOpssOOOOOXX5;;;;;;;          ",
"               ;;:OOOOpssOOOOO;;;;;          -    ",
"               ;;:OOOOpssOOOOO;;;;;  -            ",
"               <<BppppVssppppp<<<<<               ",
"                 Cssssssssssss                    ",
"                 Cssssssssssss                    "
};
