/* XPM */
static char *pl_8[] = {
/* columns rows colors chars-per-pixel */
"32 32 48 1 ",
"  c black",
". c gray20",
"X c #3B3B3B",
"o c #3D3D3D",
"O c #555555",
"+ c #5B5B5E",
"@ c #5B5B60",
"# c #5A5B61",
"$ c #5A5B62",
"% c #5A5B63",
"& c #5A5B64",
"* c #5A5B65",
"= c #636363",
"- c gray40",
"; c #707070",
": c #757579",
"> c #74757E",
", c #7A7A7A",
"< c #7C7C7F",
"1 c #7B7C84",
"2 c #808080",
"3 c #868686",
"4 c #949496",
"5 c #95969C",
"6 c gray60",
"7 c #9C9DA3",
"8 c #AAAAAA",
"9 c #BFBFBF",
"0 c #BDBDC1",
"q c gray80",
"w c #D5D5D5",
"e c #D8D8D8",
"r c #DDDDDD",
"t c #DEDEDF",
"y c #DEDEE0",
"u c #E2E2E2",
"i c #E6E6E6",
"p c #EBEBEB",
"a c #EBEBED",
"s c #EEEEEE",
"d c #F0F0F0",
"f c #F2F2F2",
"g c #F2F2F3",
"h c #F5F5F5",
"j c #F7F7F7",
"k c #FCFCFC",
"l c white",
"z c None",
/* pixels */
"zzzzzzzzzzwwrlllllllllzzzzzzzzzz",
"zzzzzzzzzwwut000000glllzzzzzzzzz",
"zzzzzzzzwwwjy******yllllzzzzzzzz",
"zzzzzzzzwuj4:***#%*>5lllzzzzzzzz",
"zzzzzzzzrpl<@&&*#%**1lllzzzzzzzz",
"zzzzzzzzlll1&+$*****1lllzzzzzzzz",
"zzzzzzzzidl1&$&*****1ldizzzzzzzz",
"zzzzzzzzwil1********1liwzzzzzzzz",
"zzzzzzzzwilly******ylliwzzzzzzzz",
"zzzzzzzzwuska777777aksuwzzzzzzzz",
"zzzzzzzzzzwjlllllllljwzzzzzzzzzz",
"zzzzzzzzzzzX........Xzzzzzzzzzzz",
"zzzzzzzzzzzo........ozzzzzzzzzzz",
"zzzzzzzzwilllllllllllliwzzzzzzzz",
"zzzzzzzwshllllllllllllhswzzzzzzz",
"zzzzzzwwllllllllllllllllwwzzzzzz",
"zzzzzzwwl6 qllllllllq 6lwwzzzzzz",
"zzzzzzwwl6 9flllllllq 6lwwzzzzzz",
"zzzzzzwwl6 8rlllllllq 6lwwzzzzzz",
"zzzzzzwwl6 8rlllllllq 6lwwzzzzzz",
"zzzzzzwwl6 8rlllllllq 6lwwzzzzzz",
"zzzzzzwwl6 8rlllllllq 6lwwzzzzzz",
"zzzzzzOO-;2eflllllllp6,-OOzzzzzz",
"zzzzzz   Owjllllllllll-   zzzzzz",
"zzzzzzzzzzwjll-  Owjllzzzzzzzzzz",
"zzzzzzzzzzwjll3  ;wjllzzzzzzzzzz",
"zzzzzzzzzzwjllzzzzwjllzzzzzzzzzz",
"zzzzzzzzzzwjllzzzzwjllzzzzzzzzzz",
"zzzzzzzzzzwjllzzzzwjllzzzzzzzzzz",
"zzzzzzzzzzwjllzzzzwjllzzzzzzzzzz",
"zzzzzzzzzzO=--zzzzO=--zzzzzzzzzz",
"zzzzzzzzzz    zzzz    zzzzzzzzzz"
};
