/* XPM */
static char *_d69055cf1534da5fa11ca4ee7ec195ejlMINuXMzV5G9bj1[] = {
/* columns rows colors chars-per-pixel */
"50 50 65 1 ",
"  c #190F58",
". c #D5D5D5",
"X c white",
"o c #484177",
"O c #777297",
"+ c #DFDFDF",
"@ c #EAEAEA",
"# c #ACADB2",
"$ c #8C87AC",
"% c #534B82",
"& c #5A5B65",
"* c #52434D",
"= c #AEAEB0",
"- c #C2C2C3",
"; c #ADADAE",
": c #5B5B5E",
"> c #5A5B60",
", c #5A5B62",
"< c #E2E2E2",
"1 c gray77",
"2 c #3E376E",
"3 c #645F84",
"4 c #CFCFD0",
"5 c #ACADB0",
"6 c #5A5B61",
"7 c #5A5B63",
"8 c #B9B9BA",
"9 c #DCDCDD",
"0 c #C1C1C2",
"q c #C7C7C8",
"w c #BDBDBE",
"e c gray80",
"r c #C4C4C5",
"t c #D5D6D8",
"y c #BEBEBF",
"u c #D0D0D0",
"i c gray82",
"p c #A9A9A9",
"a c gray50",
"s c #6A6A6A",
"d c black",
"f c #948C91",
"g c #CDCDCD",
"h c #B3B3B5",
"j c gainsboro",
"k c gray86",
"l c gray78",
"z c gray46",
"x c #CBCBCB",
"c c gray40",
"v c #686868",
"b c gray75",
"n c #B4B4B4",
"m c #5C5C5D",
"M c #59595A",
"N c #575758",
"B c #6F6A8E",
"V c #B7B7B9",
"C c #DEDEDF",
"Z c gray81",
"A c #443C73",
"S c #E0E0E1",
"D c #AAAAAA",
"F c #989898",
"G c #606061",
/* pixels */
"               .....XXXXXXXXXXXXXXX               ",
"               .....XXXXXXXXXXXXXXX               ",
"            oOO..+@@##########XXXXX$$%            ",
"            O....@XX&&&&&&&&&&XXXXXXX$            ",
"        *   O....@XX&&&&&&&&&&XXXXXXX$            ",
"          ==-..XX;::&&&&&>>,&&&&#XXXX<11          ",
"          ==-..XX;::&&&&&>>,&&&&#XXXX<11          ",
"       233==4@@XX566667&&,,7&&&&#XXXX+88332       ",
"       3====9XXXX#&&::6&&&&&&&&&#XXXX9====3       ",
"       3====9XXXX#&&::6&&&&&&&&&#XXXX9====3 *     ",
"     ==0..11q..XX#&&&&&&&&&&&&&&#XX..q====811     ",
"     ==0..11q..XX#&&&&&&&&&&&&&&#XX..q====811     ",
"     ==wee88r..XXt##&&&&&&&&&&##tXX..r==88y11     ",
"     ==811==-..XXXXX&&&&&&&&&&XXXXX..-==11111     ",
"     ==811==-..XXXXX&&&&&&&&&&XXXXX..-==11111     ",
"  3==..e1111111..@XXXXXXXXXXXXXX@..............O  ",
"  3==..e1111111..@XXXXXXXXXXXXXX@..............O  ",
"  3==..ueeeeeeeiipaaaaaaaaaaaaaapii..uee.......O  ",
"  3==............sdddddddddddddds....e11.......f  ",
"  3==............sdddddddddddddds....e11.......O  ",
"=====..e1111i..XXXXXXXXXXXXXXXXXXXX..g11..e11.....",
"=====..e1111i..XXXXXXXXXXXXXXXXXXXX..g11..e11.....",
"==h88eeeeeggj@@XXXXXXXXXXXXXXXXXXXX@@kgg..ueeeeeee",
"==81111e....@XXXXXXXXXXXXXXXXXXXXXXXX@.......11111",
"==81111e....@XXXXXXXXXXXXXXXXXXXXXXXX@.......11111",
".......0==..@XXddaXXXXXXXXXXXXXXaddXX@.......11111",
".......0==..@XXddaXXXXXXXXXXXXXXaddXX@.......11111",
".......l88..@XXddz@@XXXXXXXXXXXXaddXX@..eeu..eeeee",
".......e11..@XXdds..XXXXXXXXXXXXaddXX@..11e.......",
".......e11..@XXdds..XXXXXXXXXXXXaddXX@..11e.......",
"  3==.......@XXdds..XXXXXXXXXXXXaddXX@..11e....O *",
"  3==.......@XXdds..XXXXXXXXXXXXaddXX@..11e....O  ",
"  3==.......@XXdds..XXXXXXXXXXXXaddXX@..88l....O  ",
"  3==.......@XXdds..XXXXXXXXXXXXaddXX@..==0....O  ",
"  3==.......@XXdds..XXXXXXXXXXXXaddXX@..==0....O  ",
"     .....ddddd..@XXXXXXXXXXXXXXXXXddddd==811     ",
"     .....ddddd..@XXXXXXXXXXXXXXXXXddddd==811     ",
"     00x..ccvss..@XXXXbaaaan@@XXXXXmmMNN==811     ",
"     ==0.........@XXXXadddds..XXXXX118====811     ",
"     ==0.........@XXXXadddds..XXXXX118====811     ",
"       3====0....@XXXX9==11i..XXXXX..0==11B       ",
"       3====0....@XXXX9==11i..XXXXX..0==11B       ",
"  *    233==V00..@XXXXC==11Z..XXXXX00V==BBA     * ",
"          =====..@XXXXS==11g..XXXXX=====          ",
"          =====..@XXXXS==11g..XXXXX=====          ",
"               ..@XXXX@....i..XXXXX          *    ",
"               ..@XXXX@....i..XXXXX  *            ",
"               sszaaaaD....Fssaaaaa               ",
"               ddddddds....Gddddddd               ",
"               ddddddds....Gddddddd               "
};
