/* XPM */
static char *Astronaut[] = {
/* columns rows colors chars-per-pixel */
"100 100 8 1 ",
"  c None",
". c black",
"X c #5B5B5E",
"o c #5A5B60",
"O c #595B65",
"+ c #5A5B65",
"@ c #D5D5D5",
"# c white",
/* pixels */
"                              @@@@@@@@@@##############################                              ",
"                              @@@@@@@@@@##############################                              ",
"                              @@@@@@@@@@##############################                              ",
"                              @@@@@@@@@@##############################                              ",
"                              @@@@@@@@@@##############################                              ",
"                         @@@@@@@@@@#####++++++++++++++++++++###############                         ",
"                         @@@@@@@@@@#####++++++++++++++++++++###############                         ",
"                         @@@@@@@@@@#####++++++++++++++++++++###############                         ",
"                         @@@@@@@@@@#####++++++++++++++++++++###############                         ",
"                         @@@@@@@@@@#####++++++++++++++++++++###############                         ",
"                         @@@@@#####XXXXX++++++++++ooooo++++++++++##########                         ",
"                         @@@@@#####XXXXX++++++++++ooooo++++++++++##########                         ",
"                         @@@@@#####XXXXX++++++++++ooooo++++++++++##########                         ",
"                         @@@@@#####XXXXX++++++++++ooooo++++++++++##########                         ",
"                         @@@@@#####XXXXX++++++++++ooooo++++++++++##########                         ",
"                         ##########+++++XXXXX++++++++++++++++++++##########                         ",
"                         ##########+++++XXXXX++++++++++++++++++++##########                         ",
"                         ##########+++++XXXXX++++++++++++++++++++##########                         ",
"                         ##########+++++XXXXX++++++++++++++++++++##########                         ",
"                         ##########+++++XXXXX++++++++++++++++++++##########                         ",
"                         @@@@@#####++++++++++++++++++++++++++++++#####@@@@@                         ",
"                         @@@@@#####++++++++++++++++++++++++++++++#####@@@@@                         ",
"                         @@@@@#####++++++++++++++++++++++++++++++#####@@@@@                         ",
"                         @@@@@#####++++++++++++++++++++++++++++++#####@@@@@                         ",
"                         @@@@@#####++++++++++++++++++++++++++++++#####@@@@@                         ",
"                         @@@@@##########++++++++++++++++++++##########@@@@@                         ",
"                         @@@@@##########++++++++++++++++++++##########@@@@@                         ",
"                         @@@@@##########++++++++++++++++++++##########@@@@@                         ",
"                         @@@@@##########++++++++++++++++++++##########@@@@@                         ",
"                         @@@@@##########++++++++++++++++++++##########@@@@@                         ",
"                              @@@@@##############################@@@@@                              ",
"                              @@@@@##############################@@@@@                              ",
"                              @@@@@##############################@@@@@                              ",
"                              @@@@@##############################@@@@@                              ",
"                              @@@@@##############################@@@@@                              ",
"                                   ..............................                                   ",
"                                   ..............................                                   ",
"                                   ..............................                                   ",
"                                   ..............................                                   ",
"                                   ..............................                                   ",
"                         @@@@@########################################@@@@@                         ",
"                         @@@@@########################################@@@@@                         ",
"                         @@@@@########################################@@@@@                         ",
"                         @@@@@########################################@@@@@                         ",
"                         @@@@@########################################@@@@@                         ",
"                    @@@@@##################################################@@@@@                    ",
"                    @@@@@##################################################@@@@@                    ",
"                    @@@@@##################################################@@@@@                    ",
"                    @@@@@##################################################@@@@@                    ",
"                    @@@@@##################################################@@@@@                    ",
"                    @@@@@#####.....##############################.....#####@@@@@                    ",
"                    @@@@@#####.....##############################.....#####@@@@@                    ",
"                    @@@@@#####.....##############################.....#####@@@@@                    ",
"                    @@@@@#####.....##############################.....#####@@@@@                    ",
"                    @@@@@#####.....##############################.....#####@@@@@                    ",
"                    @@@@@#####.....@@@@@#########################.....#####@@@@@                    ",
"                    @@@@@#####.....@@@@@#########################.....#####@@@@@                    ",
"                    @@@@@#####.....@@@@@#########################.....#####@@@@@                    ",
"                    @@@@@#####.....@@@@@#########################.....#####@@@@@                    ",
"                    @@@@@#####.....@@@@@#########################.....#####@@@@@                    ",
"                    @@@@@#####.....@@@@@#########################.....#####@@@@@                    ",
"                    @@@@@#####.....@@@@@#########################.....#####@@@@@                    ",
"                    @@@@@#####.....@@@@@#########################.....#####@@@@@                    ",
"                    @@@@@#####.....@@@@@#########################.....#####@@@@@                    ",
"                    @@@@@#####.....@@@@@#########################.....#####@@@@@                    ",
"                    @@@@@#####.....@@@@@#########################.....#####@@@@@                    ",
"                    @@@@@#####.....@@@@@#########################.....#####@@@@@                    ",
"                    @@@@@#####.....@@@@@#########################.....#####@@@@@                    ",
"                    @@@@@#####.....@@@@@#########################.....#####@@@@@                    ",
"                    @@@@@#####.....@@@@@#########################.....#####@@@@@                    ",
"                    ..........@@@@@###################################..........                    ",
"                    ..........@@@@@###################################..........                    ",
"                    ..........@@@@@###################################..........                    ",
"                    ..........@@@@@###################################..........                    ",
"                    ..........@@@@@###################################..........                    ",
"                              @@@@@##########..........@@@@@##########                              ",
"                              @@@@@##########..........@@@@@##########                              ",
"                              @@@@@##########..........@@@@@##########                              ",
"                              @@@@@##########..........@@@@@##########                              ",
"                              @@@@@##########..........@@@@@##########                              ",
"                              @@@@@##########          @@@@@##########                              ",
"                              @@@@@##########          @@@@@##########                              ",
"                              @@@@@##########          @@@@@##########                              ",
"                              @@@@@##########          @@@@@##########                              ",
"                              @@@@@##########          @@@@@##########                              ",
"                              @@@@@##########          @@@@@##########                              ",
"                              @@@@@##########          @@@@@##########                              ",
"                              @@@@@##########          @@@@@##########                              ",
"                              @@@@@##########          @@@@@##########                              ",
"                              @@@@@##########          @@@@@##########                              ",
"                              @@@@@##########          @@@@@##########                              ",
"                              @@@@@##########          @@@@@##########                              ",
"                              @@@@@##########          @@@@@##########                              ",
"                              @@@@@##########          @@@@@##########                              ",
"                              @@@@@##########          @@@@@##########                              ",
"                              ...............          ...............                              ",
"                              ...............          ...............                              ",
"                              ...............          ...............                              ",
"                              ...............          ...............                              ",
"                              ...............          ...............                              "
};
