/* XPM */
static char *tile_9[] = {
/* columns rows colors chars-per-pixel */
"32 32 50 1 ",
"  c #AEAEB0",
". c #B1B1B2",
"X c #B1B1B3",
"o c #B2B2B3",
"O c #B2B2B4",
"+ c #B3B3B5",
"@ c #B5B5B7",
"# c #B6B6B7",
"$ c #B7B7B8",
"% c #B8B8B9",
"& c #B9B9BA",
"* c #BABABB",
"= c #BBBBBC",
"- c #BCBCBD",
"; c #BDBDBE",
": c #BEBEBE",
"> c #BEBEBF",
", c #BFBFBF",
"< c #BFBFC0",
"1 c #C0C0C0",
"2 c #C0C0C1",
"3 c #C1C1C2",
"4 c #C2C2C3",
"5 c #C3C3C3",
"6 c #C3C3C4",
"7 c gray77",
"8 c #C5C5C5",
"9 c #C5C5C6",
"0 c #C6C6C6",
"q c #C7C7C7",
"w c #C7C7C8",
"e c #C8C8C8",
"r c #C9C9C9",
"t c #CBCBCB",
"y c #CBCBCC",
"u c #CCCCCC",
"i c #CDCDCD",
"p c #CDCDCE",
"a c #CECECE",
"s c #CFCFCF",
"d c #D0D0D0",
"f c #D0D0D1",
"g c #D1D1D1",
"h c #D1D1D2",
"j c #D2D2D2",
"k c #D3D3D3",
"l c #D3D3D4",
"z c #D4D4D4",
"x c #D5D5D5",
"c c None",
/* pixels */
"ccccccccccccc      ccccccccccccc",
"cccccccccccc    >>>ucccccccccccc",
"ccccccccccx#    xxxxxxcccccccccc",
"ccccccc  *quppppxxxxxxu77ccccccc",
"cccccc  O%1gxxxxjkxjjjr71:cccccc",
"ccccc   7= pxxxx7txq7777   ccccc",
"cccc@9<=$+ 8ixxx73>tu777   :cccc",
"ccc #xt7   1qxxx7= pj777   17ccc",
"ccc O7$    1qxt7xxxxj7$  $777ccc",
"ccc-<7-$$$$qixstxxxxj72>>6ttuccc",
"cc pj777777jxxxxxxxxj7axxxxxxxcc",
"cc pzjjjjjjzxxxxxdqjzjzxqixxxxcc",
"c  pzjjjxzjzlpdjju7sjxkj7txjjxxc",
"   pj777xa7jp =77777qxt77txqqxxx",
" +=etae7tuazp =7$$$3qxt77txdpttt",
" $77qxt77txxp =7   1qxt77txxj777",
"xxxxp =77tx##xt77= 177ax7txxj777",
"xxxxs$&=7tx##xt7=&$38tgx=5azkttt",
"xxxxj7$ 7tx##xt7 $77qxxx $7jxxxx",
"c;#szjspjkx##xkjp4O28qqq $7jxxxc",
"cc pxxfpjkx--xxxxr#7q70qO%1gxxcc",
"cc pxx> 7txxxxxxxxxxj7ax7= pxxcc",
"ccchxx9=agx42tgxxxxir72>$+ 8uccc",
"cccxxxt7xxx#O7axxxxq77$    17ccc",
"ccc #xxxxxxxj777xa7O#xt7   17ccc",
"cccc@999xxxxj7,=ait24xst o$2cccc",
"ccccc   xxxxj7$ 7txxxxxx $7ccccc",
"cccccc  #4xxzj- 78qjs### .cccccc",
"ccccccc  -ppsx4#q07yw    ccccccc",
"cccccccccc  #xxxxa7O  cccccccccc",
"cccccccccccc;xxxxr$Xcccccccccccc",
"cccccccccccccxxxx9 ccccccccccccc"
};
