/* XPM */
static char *_9338191779449198a879020837d4a93zgxjf74RsUCE4jxP[] = {
/* columns rows colors chars-per-pixel */
"50 50 24 1 ",
"  c #190F58",
". c #AEAEB0",
"X c #777297",
"o c #6D688D",
"O c #645F84",
"+ c #C1C1C2",
"@ c #D5D5D5",
"# c #52434D",
"$ c gray77",
"% c gray80",
"& c #3E376E",
"* c #B3B3B5",
"= c #B9B9BA",
"- c gray78",
"; c #D0D0D0",
": c #BEBEBF",
"> c #BDBDBE",
", c #948C91",
"< c #C8C8C8",
"1 c #CBCBCB",
"2 c #C2C2C3",
"3 c #6F6A8E",
"4 c #B7B7B9",
"5 c #443C73",
/* pixels */
"                    ..........                    ",
"                    ..........                    ",
"               XXoOO.....+++++XXXXX               ",
"               @@+.......@@@@@@@@@@               ",
"        #      @@+.......@@@@@@@@@@               ",
"          .....$$%@@@@@@@@@@@@@@@@@$$$$$          ",
"          .....$$%@@@@@@@@@@@@@@@@@$$$$$          ",
"       &OO..*====-@@@@@@@%%;@@%%%%%$$:==OO&       ",
"       O....=$$..+@@@@@@@$$%@@$$$$$$$=....O       ",
"       O....=$$..+@@@@@@@$$%@@$$$$$$$=....O #     ",
"     ..+@@$$=....=$$@@@@@$$=..@@%$$$$=....=$$     ",
"     ..+@@$$=....=$$@@@@@$$=..@@%$$$$=....=$$     ",
"     ..>%%==*....=$$@@;%%%%-++@@%$$==*..==:$$     ",
"     ..=$$.......=$$@@%$$@@@@@@@%$$.....$$$$$     ",
"     ..=$$.......=$$@@%$$@@@@@@@%$$.....$$$$$     ",
"  O..@@%$$$$$$$$$%@@@@@@@@@@@@@@%$$@@@@@@@@@@@@X  ",
"  O..@@%$$$$$$$$$%@@@@@@@@@@@@@@%$$@@@@@@@@@@@@X  ",
"  O..@@;%%%%%%%%%;@@@@@@@@@;%%@@;%%@@;%%@@@@@@@X  ",
"  O..@@@@@@@@@@@@@@@@@@@@@@%$$@@@@@@@%$$@@@@@@@,  ",
"  O..@@@@@@@@@@@@@@@@@@@@@@%$$@@@@@@@%$$@@@@@@@X  ",
".....@@%$$$$%@@$$%@@..=$$$$$$$$$%@@$$$$$@@%$$@@@@@",
".....@@%$$$$%@@$$%@@..=$$$$$$$$$%@@$$$$$@@%$$@@@@@",
"..*==%%%%%$$<%%%%;@@..=$$=====$$%@@$$$$$@@;%%%%%%%",
"..=$$$$%@@$$$$$@@@@@..=$$.....$$%@@$$$$$@@@@@$$$$$",
"..=$$$$%@@$$$$$@@@@@..=$$.....$$%@@$$$$$@@@@@$$$$$",
"@@@@@@@+..$$$$$@@+..@@%$$$$=..$$$$$@@%$$@@@@@$$$$$",
"@@@@@@@+..$$$$$@@+..@@%$$$$=..$$$$$@@%$$@@@@@$$$$$",
"@@@@@@@-====:$$@@+..@@%$$=====$$<%%@@-==%%;@@%%%%%",
"@@@@@@@%$$..=$$@@+..@@%$$..=$$$$%@@@@+..$$%@@@@@@@",
"@@@@@@@%$$..=$$@@+..@@%$$..=$$$$%@@@@+..$$%@@@@@@@",
"  O..@@@@@@@@@@@@+..@@@@@@@+..$$$$$$$=..$$%@@@@X #",
"  O..@@@@@@@@@@@@+..@@@@@@@+..$$$$$$$=..$$%@@@@X  ",
"  O..@@@@@++-%%@@1++@@@@@@@1++%%<$$%%2====-@@@@X  ",
"  O..@@@@@..=$$@@@@@@@@@@@@@@@@@%$$@@%$$..+@@@@X  ",
"  O..@@@@@..=$$@@@@@@@@@@@@@@@@@%$$@@%$$..+@@@@X  ",
"     @@@@@$$%@@@@+..$$%@@@@@@@$$$$$.......=$$     ",
"     @@@@@$$%@@@@+..$$%@@@@@@@$$$$$.......=$$     ",
"     ++1@@%%;@@@@1++$$<%%@@;%%==2%%==*....=$$     ",
"     ..+@@@@@@@@@@@@$$$$$@@%$$..+@@$$=....=$$     ",
"     ..+@@@@@@@@@@@@$$$$$@@%$$..+@@$$=....=$$     ",
"       O....+@@@@@@@$$=..$$%@@@@@@@@@+..$$3       ",
"       O....+@@@@@@@$$=..$$%@@@@@@@@@+..$$3       ",
"  #    &OO..4++@@@@@%%>..$$<%%@@1++++4..335     # ",
"          .....@@@@@@@+..$$$$$@@+.......          ",
"          .....@@@@@@@+..$$$$$@@+.......          ",
"               .....@@@@@@@%$$.....          #    ",
"               .....@@@@@@@%$$.....  #            ",
"               OOOOO@@@@@@@-==OOOOO               ",
"                    @@@@@@@+..                    ",
"                    @@@@@@@+..                    "
};
